<?xml version="1.0" encoding="UTF-8"?>
<!DOCTYPE svg PUBLIC "-//W3C//DTD SVG 1.1//EN" "http://www.w3.org/Graphics/SVG/1.1/DTD/svg11.dtd">
<svg version="1.1" xmlns="http://www.w3.org/2000/svg" xmlns:xlink="http://www.w3.org/1999/xlink" x="0" y="0" width="373.768" height="430.135" viewBox="0, 0, 373.768, 430.135">
  <g id="Layer_1" transform="translate(-53.116, -24.933)">
    <path d="M143.707,277.908 L143.707,277.903 L259.569,225.863 L142.922,179.059 L142.922,179.053 L142.917,179.057 L142.907,179.053 L142.907,179.064 L81.734,220.098 L142.907,179.055 L142.895,179.043 L142.911,179.027 L259.569,225.863 L259.577,225.86 L309.986,295.512 L309.977,295.56 L259.561,225.897 L191.185,312.241 L191.175,312.231 L259.569,225.863 z M304.446,68.825 L224.404,68.825 L192.531,120.773 L251.332,24.933 L53.901,68.342 L53.326,68.146 L53.324,68.144 L53.324,68.145 L53.116,68.076 L53.324,68.321 L53.324,68.485 L53.116,68.536 L53.324,68.606 L53.781,322.191 L53.781,322.246 L53.796,322.195 L138.328,357.178 L201.484,383.535 L376.041,455.067 L362.321,404.849 L426.884,358.691 L426.884,215.727 L426.884,120.593 L426.884,68.825 z" fill="#C53D56"/>
    <path d="M309.977,295.56 L376.332,358.691 L405.18,269.159 z" fill="#D23F57"/>
    <path d="M426.884,358.691 L405.18,269.159 L426.884,215.727 z" fill="#DA3B54"/>
    <path d="M304.293,425.633 L309.978,358.691 L362.321,404.849 z" fill="#AF3750"/>
    <path d="M362.321,404.849 L376.333,358.691 L426.884,358.691 z" fill="#C53D56"/>
    <path d="M201.638,383.043 L255.546,367.658 L304.293,425.633 z" fill="#D23F57"/>
    <path d="M191.176,312.231 L201.638,383.043 L255.546,367.658 z" fill="#C53D56"/>
    <path d="M255.546,367.658 L304.293,425.633 L309.978,358.691 z" fill="#C53D56"/>
    <path d="M309.977,358.691 L362.321,404.849 L376.332,358.691 z" fill="#E2445C"/>
    <path d="M53.781,322.191 L143.708,277.908 L138.329,357.177 z" fill="#C53D56"/>
    <path d="M143.707,277.908 L138.328,357.178 L191.175,312.231 z" fill="#D23F57"/>
    <path d="M138.328,357.177 L191.175,312.231 L201.638,383.042 z" fill="#AF3750"/>
    <path d="M376.333,358.691 L426.884,358.691 L405.18,269.159 z" fill="#AF3750"/>
    <path d="M309.977,295.56 L255.545,367.658 L191.166,312.266 z" fill="#E2445C"/>
    <path d="M309.977,295.56 L376.332,358.691 L309.977,358.691 z" fill="#C53D56"/>
    <path d="M255.546,367.658 L309.978,358.691 L309.978,295.56 z" fill="#AF3750"/>
    <path d="M405.18,269.159 L426.884,120.593 L327.522,194.465 z" fill="#D23F57"/>
    <path d="M426.884,215.727 L405.18,269.159 L426.884,120.593 z" fill="#AF3750"/>
    <path d="M142.922,179.052 L81.734,220.097 L143.707,277.907 z" fill="#C53D56"/>
    <path d="M259.569,225.862 L143.707,277.907 L191.175,312.231 z" fill="#AF3750"/>
    <path d="M309.977,295.56 L191.166,312.266 L259.561,225.896 z" fill="#C53D56"/>
    <path d="M142.907,179.052 L143.692,277.907 L259.569,225.862 z" fill="#E2445C"/>
    <path d="M327.521,194.465 L405.179,269.159 L309.977,295.56 z" fill="#C53D56"/>
    <path d="M327.521,194.465 L259.569,225.85 L309.986,295.511 z" fill="#E2445C"/>
    <path d="M81.735,220.098 L53.782,322.191 L143.708,277.908 z" fill="#E2445C"/>
    <path d="M327.521,194.465 L426.883,120.592 L304.446,68.825 z" fill="#C53D56"/>
    <path d="M327.521,194.465 L304.446,68.825 L259.569,225.862 z" fill="#AF3750"/>
    <path d="M259.569,225.862 L192.416,120.959 L304.446,68.824 z" fill="#C53D56"/>
    <path d="M192.416,120.592 L142.907,179.024 L259.569,225.862 z" fill="#D23F57"/>
    <path d="M53.116,68.076 L192.416,120.593 L142.89,179.053 z" fill="#E2445C"/>
    <path d="M53.324,68.144 L142.907,179.055 L81.735,220.098 z" fill="#AF3750"/>
    <path d="M53.324,68.144 L81.735,220.098 L53.782,322.246 z" fill="#C53D56"/>
    <path d="M426.884,120.592 L304.446,68.824 L426.884,68.824 z" fill="#E2445C"/>
    <path d="M304.446,68.825 L224.404,68.825 L192.416,120.96 z" fill="#AF3750"/>
    <path d="M251.333,24.933 L192.416,120.96 L53.116,68.536 z" fill="#C53D56"/>
    <path d="M304.293,425.632 L362.321,404.849 L376.042,455.068 z" fill="#D23F57"/>
  </g>
</svg>
