<svg xmlns="http://www.w3.org/2000/svg" width="267.579" height="307.363" viewBox="0, 0, 334.473, 384.204"><path d="M233.159 243.194l56.393 53.653 24.514-76.09z" fill="#D23F57"/><path d="M317.899 218.599l16.574 68.388V177.784z" fill="#DA3B54"/><path d="M274.688 340.76l-43.23-38.12-4.694 55.284z" fill="#AF3750"/><path d="M331.317 301.053h-39.969l-11.077 36.496z" fill="#C53D56"/><path d="M180.471 309.373l-43.719 12.475 83.252 34.544z" fill="#D23F57"/><path d="M177.921 306.999l-53.093-45.716 8.632 58.406zm5.897 1.719l40.084 47.674 4.676-55.046z" fill="#C53D56"/><path d="M234.169 301.053l42.647 37.607 11.416-37.607z" fill="#E2445C"/><path d="M2.124 266.431l71.511 29.593 4.55-67.05z" fill="#C53D56"/><path d="M120.355 257.636L81.15 229.278l-4.44 65.491z" fill="#D23F57"/><path d="M121.687 260.42l-43.871 37.322 52.558 21.477zm194.445-36.346l-23.844 73.998h41.782z" fill="#AF3750"/><path d="M126.23 258.592l54.529 46.916 46.103-61.07z" fill="#E2445C"/><path d="M286.515 298.072l-54.8-52.136v52.136z" fill="#C53D56"/><path d="M184.428 305.597l44.305-7.301v-51.387z" fill="#AF3750"/><path d="M248.395 151.164l66.883 64.332 18.69-127.954z" fill="#D23F57"/><path d="M319.592 206.599l14.882-36.641v-65.236z" fill="#AF3750"/><path d="M77.667 139.859l-51.482 34.536 52.143 48.644z" fill="#C53D56"/><path d="M82.809 226.797l39.676 28.701 57.187-72.217z" fill="#AF3750"/><path d="M184.567 181.919l-58.326 73.659 101.323-14.25z" fill="#C53D56"/><path d="M80.63 139.291l.676 84.908 99.515-44.703z" fill="#E2445C"/><path d="M313.418 217.843l-66.335-63.804-14.988 86.355z" fill="#C53D56"/><path d="M186.901 180.001l42.468 58.679 14.77-85.116zm-109.649 46.11L24.58 176.976.822 263.749z" fill="#E2445C"/><path d="M332.986 84.559L227.188 39.827l19.937 108.565z" fill="#C53D56"/><path d="M224.905 43.91l-37.946 132.791 57.46-26.551z" fill="#AF3750"/><path d="M126.064 85.165l58.041 90.667 38.788-135.727z" fill="#C53D56"/><path d="M123.721 86.708l-42.126 49.731 99.281 39.866z" fill="#D23F57"/><path d="M121.336 84.91L2.93 40.289l76.177 94.482z" fill="#E2445C"/><path d="M76.91 136.77L1.041 42.519l23.795 129.19z" fill="#AF3750"/><path d="M0 255.502l22.263-81.359L.001 52.987z" fill="#C53D56"/><path d="M232.576 38.868l101.897 43.083V38.868z" fill="#E2445C"/><path d="M218.483 38.868h-64.825l-25.906 42.224z" fill="#AF3750"/><path d="M3.627 37.79l119.615 44.95L174.008 0z" fill="#C53D56"/><path d="M276.556 343.261l-47.313 16.944 58.5 23.999z" fill="#D23F57"/></svg>