<?xml version="1.0" encoding="UTF-8"?>
<!DOCTYPE svg PUBLIC "-//W3C//DTD SVG 1.1//EN" "http://www.w3.org/Graphics/SVG/1.1/DTD/svg11.dtd">
<svg version="1.1" xmlns="http://www.w3.org/2000/svg" xmlns:xlink="http://www.w3.org/1999/xlink" x="0" y="0" width="267.579" height="307.363" viewBox="0, 0, 334.473, 384.204">
  <g id="Layer_1" transform="translate(-126.965, -112.456)">
    <path d="M360.124,355.65 L416.517,409.303 L441.031,333.213 z" fill="#D23F57"/>
    <path d="M444.864,331.055 L461.438,399.443 L461.438,290.24 z" fill="#DA3B54"/>
    <path d="M401.653,453.216 L358.423,415.096 L353.729,470.38 z" fill="#AF3750"/>
    <path d="M458.282,413.509 L418.313,413.509 L407.236,450.005 z" fill="#C53D56"/>
    <path d="M307.436,421.829 L263.717,434.304 L346.969,468.848 z" fill="#D23F57"/>
    <path d="M304.886,419.455 L251.793,373.739 L260.425,432.145 z" fill="#C53D56"/>
    <path d="M310.783,421.174 L350.867,468.848 L355.543,413.802 z" fill="#C53D56"/>
    <path d="M361.134,413.509 L403.781,451.116 L415.197,413.509 z" fill="#E2445C"/>
    <path d="M129.089,378.887 L200.6,408.48 L205.15,341.43 z" fill="#C53D56"/>
    <path d="M247.32,370.092 L208.115,341.734 L203.675,407.225 z" fill="#D23F57"/>
    <path d="M248.652,372.876 L204.781,410.198 L257.339,431.675 z" fill="#AF3750"/>
    <path d="M443.097,336.53 L419.253,410.528 L461.035,410.528 z" fill="#AF3750"/>
    <path d="M253.195,371.048 L307.724,417.964 L353.827,356.894 z" fill="#E2445C"/>
    <path d="M413.48,410.528 L358.68,358.392 L358.68,410.528 z" fill="#C53D56"/>
    <path d="M311.393,418.053 L355.698,410.752 L355.698,359.365 z" fill="#AF3750"/>
    <path d="M375.36,263.62 L442.243,327.952 L460.933,199.998 z" fill="#D23F57"/>
    <path d="M446.557,319.055 L461.439,282.414 L461.439,217.178 z" fill="#AF3750"/>
    <path d="M204.632,252.315 L153.15,286.851 L205.293,335.495 z" fill="#C53D56"/>
    <path d="M209.774,339.253 L249.45,367.954 L306.637,295.737 z" fill="#AF3750"/>
    <path d="M311.532,294.375 L253.206,368.034 L354.529,353.784 z" fill="#C53D56"/>
    <path d="M207.595,251.747 L208.271,336.655 L307.786,291.952 z" fill="#E2445C"/>
    <path d="M440.383,330.299 L374.048,266.495 L359.06,352.85 z" fill="#C53D56"/>
    <path d="M313.866,292.457 L356.334,351.136 L371.104,266.02 z" fill="#E2445C"/>
    <path d="M204.217,338.567 L151.545,289.432 L127.787,376.205 z" fill="#E2445C"/>
    <path d="M459.951,197.015 L354.153,152.283 L374.09,260.848 z" fill="#C53D56"/>
    <path d="M351.87,156.366 L313.924,289.157 L371.384,262.606 z" fill="#AF3750"/>
    <path d="M253.029,197.621 L311.07,288.288 L349.858,152.561 z" fill="#C53D56"/>
    <path d="M250.686,199.164 L208.56,248.895 L307.841,288.761 z" fill="#D23F57"/>
    <path d="M248.301,197.366 L129.895,152.745 L206.072,247.227 z" fill="#E2445C"/>
    <path d="M203.875,249.226 L128.006,154.975 L151.801,284.165 z" fill="#AF3750"/>
    <path d="M126.965,367.958 L149.228,286.599 L126.966,165.443 z" fill="#C53D56"/>
    <path d="M359.541,151.324 L461.438,194.407 L461.438,151.324 z" fill="#E2445C"/>
    <path d="M345.448,151.324 L280.623,151.324 L254.717,193.548 z" fill="#AF3750"/>
    <path d="M130.592,150.246 L250.207,195.196 L300.973,112.456 z" fill="#C53D56"/>
    <path d="M403.521,455.717 L356.208,472.661 L414.708,496.66 z" fill="#D23F57"/>
  </g>
</svg>
