<svg xmlns="http://www.w3.org/2000/svg" width="200" height="200" viewBox="0, 0, 200, 200"><path d="M7.5 71.874H100v20.929H7.5V71.874zm0 35.323H100v20.929H7.5v-20.929zM166 175.578h-15.078q-11.953-18.047-18.203-37.5t-6.25-37.656q0-22.578 7.734-42.734 6.719-17.5 17.031-32.266h15q-10.703 23.672-14.726 40.273-4.024 16.602-4.024 35.196 0 12.812 2.383 26.25 2.383 13.437 6.524 25.547 2.734 7.968 9.609 22.89z" fill="#E61B5A"/><path d="M166 175.578h-15.078q-11.953-18.047-18.203-37.5t-6.25-37.656q0-22.578 7.734-42.734 6.719-17.5 17.031-32.266h15q-10.703 23.672-14.726 40.273-4.024 16.602-4.024 35.196 0 12.812 2.383 26.25 2.383 13.437 6.524 25.547 2.734 7.968 9.609 22.89z" stroke="#E61B5A" fill="none"/></svg>