<?xml version="1.0" encoding="UTF-8"?>
<!DOCTYPE svg PUBLIC "-//W3C//DTD SVG 1.1//EN" "http://www.w3.org/Graphics/SVG/1.1/DTD/svg11.dtd">
<svg version="1.1" xmlns="http://www.w3.org/2000/svg" xmlns:xlink="http://www.w3.org/1999/xlink" x="0" y="0" width="200" height="200" viewBox="0, 0, 200, 200">
  <g id="Layer_1">
    <path d="M7.5,71.874 L100,71.874 L100,92.803 L7.5,92.803 L7.5,71.874 z" fill="#E61B5A"/>
    <path d="M7.5,107.197 L100,107.197 L100,128.126 L7.5,128.126 L7.5,107.197 z" fill="#E61B5A"/>
    <g>
      <path d="M166,175.578 L150.922,175.578 Q138.969,157.531 132.719,138.078 Q126.469,118.625 126.469,100.422 Q126.469,77.844 134.203,57.688 Q140.922,40.188 151.234,25.422 L166.234,25.422 Q155.531,49.094 151.508,65.695 Q147.484,82.297 147.484,100.891 Q147.484,113.703 149.867,127.141 Q152.25,140.578 156.391,152.688 Q159.125,160.656 166,175.578 z" fill="#E61B5A"/>
      <path d="M166,175.578 L150.922,175.578 Q138.969,157.531 132.719,138.078 Q126.469,118.625 126.469,100.422 Q126.469,77.844 134.203,57.688 Q140.922,40.188 151.234,25.422 L166.234,25.422 Q155.531,49.094 151.508,65.695 Q147.484,82.297 147.484,100.891 Q147.484,113.703 149.867,127.141 Q152.25,140.578 156.391,152.688 Q159.125,160.656 166,175.578 z" fill-opacity="0" stroke="#E61B5A" stroke-width="1"/>
    </g>
  </g>
</svg>
