<?xml version="1.0" encoding="UTF-8"?>
<!DOCTYPE svg PUBLIC "-//W3C//DTD SVG 1.1//EN" "http://www.w3.org/Graphics/SVG/1.1/DTD/svg11.dtd">
<!-- Creator: CorelDRAW Home & Student X7 -->
<svg xmlns="http://www.w3.org/2000/svg" xml:space="preserve" width="90.5123mm" height="104.226mm" version="1.1" style="shape-rendering:geometricPrecision; text-rendering:geometricPrecision; image-rendering:optimizeQuality; fill-rule:evenodd; clip-rule:evenodd"
viewBox="0 0 6635 7640"
 xmlns:xlink="http://www.w3.org/1999/xlink">
 <defs>
  <style type="text/css">
   <![CDATA[
    .fil0 {fill:#CCCCCC;fill-rule:nonzero}
    .fil5 {fill:#CCCCCC;fill-rule:nonzero}
    .fil2 {fill:whitesmoke;fill-rule:nonzero}
    .fil1 {fill:whitesmoke;fill-rule:nonzero}
    .fil3 {fill:white;fill-rule:nonzero}
    .fil4 {fill:white;fill-rule:nonzero}
   ]]>
  </style>
 </defs>
 <g id="Warstwa_x0020_1">
  <metadata id="CorelCorpID_0Corel-Layer"/>
  <polygon class="fil0" points="4555,4838 5740,5942 6265,4343 "/>
  <polygon class="fil1" points="6265,4343 6627,5928 6635,3535 "/>
  <polygon class="fil0" points="5512,6768 4571,5956 4462,7125 "/>
  <polygon class="fil1" points="6627,5928 5740,5942 5512,6768 "/>
  <polygon class="fil2" points="3596,6113 2638,6373 4462,7125 "/>
  <polygon class="fil0" points="3596,6113 2447,5133 2638,6373 "/>
  <polygon class="fil2" points="3596,6113 4462,7125 4571,5956 "/>
  <polygon class="fil3" points="4552,5954 5512,6768 5740,5942 "/>
  <polygon class="fil2" points="0,5245 1448,5887 1572,4485 "/>
  <polygon class="fil3" points="2447,5133 1572,4485 1448,5887 "/>
  <polygon class="fil0" points="2447,5133 1448,5887 2638,6373 "/>
  <polygon class="fil0" points="6265,4343 5740,5942 6627,5928 "/>
  <polygon class="fil3" points="2447,5133 3596,6113 4555,4838 "/>
  <polygon class="fil2" points="5740,5942 4555,4838 4571,5956 "/>
  <polygon class="fil0" points="3596,6113 4571,5956 4555,4838 "/>
  <polygon class="fil4" points="4888,2999 6265,4343 6634,1696 "/>
  <polygon class="fil0" points="6265,4343 6635,3535 6634,1696 "/>
  <polygon class="fil2" points="1606,2713 478,3415 1572,4485 "/>
  <polygon class="fil0" points="1557,4488 2447,5133 3639,3570 "/>
  <polygon class="fil2" points="3639,3570 2447,5133 4555,4838 "/>
  <polygon class="fil3" points="1606,2713 1572,4485 3639,3570 "/>
  <polygon class="fil2" points="6265,4343 4888,2999 4555,4838 "/>
  <polygon class="fil5" points="3639,3570 4555,4838 4888,2999 "/>
  <polygon class="fil3" points="1572,4485 478,3415 0,5245 "/>
  <polygon class="fil5" points="6634,1696 4448,769 4888,2999 "/>
  <polygon class="fil4" points="4448,769 3639,3570 4888,2999 "/>
  <polygon class="fil2" points="2491,1694 3639,3570 4448,769 "/>
  <polygon class="fil2" points="2491,1694 1606,2713 3639,3570 "/>
  <polygon class="fil3" points="2491,1694 56,752 1606,2713 "/>
  <polygon class="fil0" points="1606,2713 56,752 478,3415 "/>
  <polygon class="fil2" points="0,5245 478,3415 56,752 "/>
  <polygon class="fil1" points="4448,769 6634,1696 6635,773 "/>
  <polygon class="fil0" points="4448,769 2997,770 2491,1694 "/>
  <polygon class="fil2" points="56,752 2491,1694 3444,0 "/>
  <polygon class="fil2" points="5512,6768 4462,7125 5706,7640 "/>
 </g>
</svg>
