<svg xmlns="http://www.w3.org/2000/svg" width="300" height="400" viewBox="0, 0, 360, 480"><path d="M289.882 17.75c-.157 1.248-.261 2.649.205 3.93 1.273 3.498 4.663 5.576 7.769 5.338l.157.431c-2.533 1.813-4.029 5.669-2.756 9.166 1.273 3.498 4.898 5.49 8.004 5.252l.157.431c-2.533 1.813-4.029 5.669-2.756 9.167 1.273 3.498 4.898 5.49 8.003 5.251l.157.431c-2.533 1.813-4.029 5.67-2.756 9.167 1.273 3.498 4.899 5.49 8.004 5.252l.157.431c-2.533 1.813-4.029 5.669-2.756 9.167 1.273 3.498 4.898 5.49 8.004 5.252l.157.43c-2.533 1.814-4.029 5.671-2.756 9.166 1.273 3.5 4.898 5.491 8.003 5.252l.157.431c-2.532 1.814-4.028 5.67-2.755 9.168 1.273 3.498 4.898 5.49 8.004 5.252l.157.431c-2.533 1.814-4.029 5.67-2.756 9.167 1.273 3.498 4.898 5.49 8.003 5.251l.157.431c-2.532 1.814-4.028 5.67-2.755 9.167 1.272 3.498 4.898 5.491 8.003 5.252l.157.431c-2.533 1.813-3.794 5.583-2.521 9.081.502 1.378 1.567 2.448 2.591 3.329l-35.345 12.864 38.652 8.923c-.812.961-1.663 2.08-1.969 3.408-.838 3.626.874 7.216 3.608 8.708l-.103.447c-3.111.141-6.467 2.56-7.304 6.186-.837 3.627 1.118 7.272 3.852 8.764l-.103.447c-3.111.141-6.466 2.56-7.304 6.187-.837 3.627 1.118 7.272 3.853 8.763l-.103.447c-3.112.141-6.467 2.561-7.305 6.187-.837 3.627 1.118 7.272 3.853 8.764l-.103.447c-3.112.141-6.467 2.56-7.305 6.187-.837 3.627 1.118 7.272 3.853 8.764l-.103.446c-3.112.142-6.467 2.562-7.304 6.186-.838 3.629 1.118 7.273 3.852 8.764l-.103.447c-3.111.142-6.467 2.561-7.304 6.188-.837 3.627 1.118 7.272 3.852 8.764l-.103.447c-3.111.142-6.467 2.561-7.304 6.187-.837 3.627 1.118 7.272 3.853 8.763l-.104.447c-3.111.142-6.466 2.561-7.304 6.187-.837 3.627 1.118 7.273 3.853 8.764l-.104.447c-3.111.141-6.222 2.616-7.06 6.243-.33 1.429-.019 2.906.36 4.202l-24.471-5.649 36.098 37.381c-1.204.363-2.526.838-3.507 1.785-2.677 2.586-3.197 6.528-1.716 9.268l-.33.319c-2.686-1.576-6.818-1.375-9.495 1.211-2.678 2.585-3.023 6.707-1.542 9.447l-.33.319c-2.686-1.576-6.818-1.375-9.496 1.212-2.677 2.585-3.023 6.707-1.541 9.446l-.33.319c-2.686-1.576-6.818-1.374-9.496 1.212-2.677 2.585-3.023 6.707-1.542 9.447l-.33.319c-2.686-1.577-6.817-1.375-9.496 1.211-2.677 2.586-3.023 6.708-1.541 9.448l-.33.318c-2.687-1.576-6.819-1.374-9.495 1.211-2.679 2.586-3.024 6.708-1.542 9.447l-.33.319c-2.687-1.576-6.818-1.374-9.496 1.212-2.678 2.585-3.023 6.707-1.542 9.448l-.33.318c-2.687-1.575-6.819-1.374-9.496 1.212-2.677 2.585-3.023 6.707-1.541 9.447l-.33.318c-2.687-1.575-6.819-1.374-9.496 1.212-2.677 2.585-3.024 6.708-1.542 9.447l-.33.319c-2.686-1.576-6.644-1.195-9.321 1.39-1.056 1.02-1.599 2.427-1.988 3.721L15.733 256.47c1.306-.342 2.385-1.196 3.441-2.215 2.677-2.585 3.544-6.168 1.367-9.627l.33-.318c3.381 2.296 6.819 1.374 9.496-1.212 2.677-2.585 3.718-5.988 1.542-9.447l.33-.319.749.421c4.162-.057 6.177-2.427 7.286-6.186.837-3.626-.143-7.046-3.852-8.763l.103-.447c4.086.083 6.467-2.561 7.304-6.187.837-3.628-.143-7.048-3.852-8.765l.103-.447c4.086.084 6.466-2.559 7.304-6.187.763-3.672-.126-6.64-3.488-8.555-1.433-.323-.633-.235-2.413-.132l-.157-.43c3.472-2.156 4.029-5.67 2.756-9.168-1.273-3.498-3.959-5.833-8.004-5.251l-.157-.431c3.472-2.156 4.029-5.67 2.756-9.168-1.273-3.497-3.959-5.832-8.004-5.251l-.157-.431c3.473-2.155 4.029-5.669 2.756-9.167-1.273-3.498-3.958-5.833-8.003-5.251l-.157-.431c3.472-2.156 4.028-5.67 2.755-9.168-1.273-3.497-3.958-5.832-8.003-5.25l-.157-.431c3.472-2.156 4.263-5.757 2.99-9.254-.466-1.281-.976-2.458-1.9-3.313L289.882 17.75z" fill-opacity=".16"/><path d="M339.907 158.241c-1.024-.881-2.089-1.951-2.591-3.329-1.273-3.498-.012-7.268 2.521-9.081l-.157-.431c-3.105.239-6.73-1.754-8.003-5.252-1.273-3.497.223-7.353 2.755-9.167l-.157-.431c-3.105.239-6.73-1.753-8.003-5.251-1.273-3.497.223-7.353 2.756-9.167l-.157-.431c-3.106.238-6.731-1.754-8.004-5.252-1.273-3.498.223-7.354 2.755-9.168l-.157-.431c-3.105.239-6.73-1.752-8.003-5.251-1.273-3.496.223-7.353 2.756-9.167l-.157-.43c-3.105.238-6.731-1.754-8.004-5.252-1.273-3.498.223-7.354 2.756-9.167l-.157-.431c-3.105.238-6.73-1.754-8.003-5.252-1.273-3.497.222-7.354 2.755-9.167l-.157-.431c-3.105.239-6.73-1.753-8.003-5.251-1.273-3.498.223-7.354 2.756-9.167l-.157-.431c-3.106.238-6.731-1.754-8.004-5.252-1.273-3.497.223-7.353 2.756-9.166l-.157-.431c-3.106.238-6.496-1.84-7.769-5.338-.466-1.281-.362-2.682-.205-3.93L19.383 115.275c.924.855 1.434 2.032 1.9 3.313 1.273 3.497.482 7.098-2.99 9.254l.157.431c4.045-.582 6.73 1.753 8.003 5.25 1.273 3.498.717 7.012-2.755 9.168l.157.431c4.045-.582 6.73 1.753 8.003 5.251 1.273 3.498.717 7.012-2.756 9.167l.157.431c4.045-.582 6.731 1.754 8.004 5.251 1.273 3.498.716 7.012-2.756 9.168l.157.431c4.045-.582 6.731 1.753 8.004 5.251 1.273 3.498.716 7.012-2.756 9.168l.157.43c4.045-.581 6.731 1.755 8.003 5.25 1.274 3.5.717 7.013-2.756 9.168l.157.431c4.046-.581 6.731 1.754 8.004 5.252 1.273 3.498.717 7.012-2.755 9.168l.157.431c4.045-.581 6.73 1.754 8.003 5.251 1.273 3.498.717 7.012-2.756 9.167l.157.431c4.046-.581 6.731 1.754 8.004 5.251 1.273 3.498.717 7.013-2.756 9.168l.157.431c4.045-.582 6.966 1.667 8.239 5.165.501 1.378.842 2.711.623 4.044z" fill="#FFF"/><path d="M89.659 140.507l-5.29 5.72-9.293 6.04-10.888 4.639-10.796 3.254 17.337-20.156-8.494-.903 5.251-2.887-8.045-.888 5.529-2.368-2.565-.312-5.597-3.166-5.241-4.272-4.272-4.721 6.116 1.448 26.861 2.348 2.67-4.315 3.585-3.257 3.255-1.184 4.84.19 2.393 2.383 6.313.276-6.372 3.755-4.826 7.421.251 3.242-2.722 7.713m7.356-22.407l-.059 4.031m.059-4.031l-5.19 1.889m0 0l2.901 5.426m-2.901-5.426l-2.043-4.462m-6.84 4.441l4.696 3.627m0 0l-1.111-6.884m1.111 6.884l7.088 1.82m-2.901-5.426l-5.298-3.278m5.603 12.841l-5.267.346m.775-6.303l4.492 5.957m-5.267.346l-5.954-1.249m5.954 1.249l-3.921-9.93m-2.033 8.681l-.637-4.366m-9.543 15.721l3.471-3.926m-6.714.136l6.714-.136m-22.633-10.87l6.896-2.891m0 0l.065 8.022m6.442 2.619l6.807-1.317m-.196.072l3.615-7.823m-16.668 6.449l16.668-6.449m-3.615 7.823l9.328-3.064m-6.957 7.519l7.797.508m-7.797-.508l6.957-7.519m.84 8.027l5.114-6.778m-5.308 6.849l10.826-3.953m-10.826 3.953l8.104 3.76m-5.29 5.72l-9.794-.901m7.174-8.65l-7.174 8.651m-.375-9.249l.375 9.249m0-.001l-10.25 2.278m0 0l10.751 4.663m-10.751-4.663l-.137 9.302" stroke="#A0A0A0" fill="none"/><path d="M254.659 69.366v-.001l8.469-8.232-11.682-.38v-.001.001h-.001v.001l-4.04 5.531 4.04-5.532-.002-.001.001-.002 11.684.383.001-.001 6.62 4.484.001.004-6.621-4.484-3.229 9.72h-.001l3.229-9.723zm7.396-23.383l-6.994 2.545-1.133 5.554 2.09-10.246-15.872 10.073-.057.001-.02.001.026.015.005.014-.017.011h.021l8.105 22.145.002.005v-.005l8.499.368 6.357.295 17.529.699-2.796-3.952 4.174-6.087-4.547-12.493-3.026-8.314-1.647-4.524z" fill="#C53D56"/><path d="M269.75 65.62l7.806 3.406-.326-8.741z" fill="#D23F57"/><path d="M281.974 67.419l-4.744-7.134.197-5.359z" fill="#DA3B54"/><path d="M273.39 77.167l-1.632-6.03 6.042 2.369z" fill="#AF3750"/><path d="M277.8 73.506l-.243-4.48 4.417-1.607z" fill="#C53D56"/><path d="M263.065 76.711l4.222-3.059 6.103 3.515z" fill="#D23F57"/><path d="M259.899 70.856l3.166 5.855 4.222-3.059zm7.388 2.796l6.103 3.515-1.632-6.03z" fill="#C53D56"/><path d="M271.758 71.137l6.042 2.369-.244-4.48z" fill="#E2445C"/><path d="M248.209 76.096l6.45-6.73 2.051 7.098z" fill="#C53D56"/><path d="M254.659 69.366l2.051 7.098 3.189-5.609z" fill="#D23F57"/><path d="M256.71 76.464l3.189-5.608 3.166 5.855zm20.846-7.438l4.418-1.607-4.744-7.134z" fill="#AF3750"/><path d="M269.75 65.62l-2.463 8.032-7.388-2.793z" fill="#E2445C"/><path d="M269.75 65.62l7.806 3.406-5.798 2.111z" fill="#C53D56"/><path d="M267.287 73.652l4.471-2.515-2.008-5.517z" fill="#AF3750"/><path d="M277.23 60.285l-2.829-13.673-6.333 9.616z" fill="#D23F57"/><path d="M277.427 54.925l-.197 5.36-2.829-13.673z" fill="#AF3750"/><path d="M251.446 60.752l-4.041 5.533 7.254 3.081z" fill="#C53D56"/><path d="M263.128 61.133l-8.469 8.233 5.24 1.49z" fill="#AF3750"/><path d="M269.75 65.62l-9.851 5.239 3.23-9.723z" fill="#C53D56"/><path d="M251.445 60.753l3.213 8.613 8.47-8.233z" fill="#E2445C"/><path d="M268.068 56.228l9.162 4.057-7.48 5.335z" fill="#C53D56"/><path d="M268.068 56.228l-4.94 4.904 6.621 4.484zm-20.663 10.057l.804 9.811 6.45-6.73z" fill="#E2445C"/><path d="M268.068 56.228l6.333-9.616-12.346-.629z" fill="#C53D56"/><path d="M268.068 56.228l-6.013-10.245 1.073 15.15z" fill="#AF3750"/><path d="M263.128 61.133l-9.204-7.031 8.131-8.119z" fill="#C53D56"/><path d="M253.912 54.07l-2.468 6.68 11.684.383z" fill="#D23F57"/><path d="M240.069 53.911l13.843.159-2.469 6.683z" fill="#E2445C"/><path d="M240.089 53.91l11.356 6.843-4.04 5.532z" fill="#AF3750"/><path d="M240.089 53.91l7.316 12.375.806 9.816z" fill="#C53D56"/><path d="M274.401 46.612l-12.346-.629 10.699-3.895z" fill="#E2445C"/><path d="M262.055 45.983l-6.994 2.545-1.137 5.574z" fill="#AF3750"/><path d="M256.018 43.836l-2.095 10.266-13.84-.151z" fill="#C53D56"/><path d="M273.39 77.167l4.41-3.661 2.796 3.952z" fill="#D23F57"/><path d="M110.258 155.469L237.82 109.04l3.42 9.397-127.562 46.429-3.42-9.397zm7.748 21.656l84.228-30.656 3.42 9.397-84.228 30.656-3.42-9.397zm8.208 22.553l96.435-35.1 3.42 9.397-96.434 35.1-3.421-9.397z" fill="#E4E4E4"/><path d="M309.611 325.334c-.379-1.296-.69-2.773-.36-4.203.838-3.626 3.949-6.102 7.061-6.242l.103-.448c-2.735-1.49-4.69-5.136-3.853-8.763.838-3.626 4.193-6.046 7.305-6.187l.103-.448c-2.735-1.49-4.69-5.135-3.853-8.762.837-3.626 4.193-6.046 7.304-6.187l.104-.448c-2.735-1.491-4.69-5.136-3.853-8.763.838-3.627 4.193-6.047 7.304-6.188l.104-.448c-2.735-1.49-4.691-5.134-3.853-8.763.837-3.624 4.192-6.045 7.304-6.186l.103-.447c-2.734-1.491-4.69-5.136-3.852-8.763.837-3.627 4.192-6.047 7.304-6.187l.103-.447c-2.735-1.492-4.69-5.137-3.852-8.764.837-3.626 4.192-6.047 7.304-6.187l.103-.447c-2.735-1.491-4.69-5.136-3.853-8.763.838-3.627 4.193-6.047 7.304-6.187l.104-.447c-2.735-1.492-4.69-5.137-3.853-8.764.837-3.626 4.193-6.046 7.304-6.186l.103-.447c-2.734-1.492-4.446-5.082-3.608-8.708.306-1.328 1.157-2.447 1.969-3.408L64.198 114.73c.309 1.22.096 2.486-.21 3.814-.838 3.626-3.462 6.215-7.548 6.132l-.104.447c3.71 1.716 4.69 5.136 3.853 8.762-.837 3.627-3.218 6.271-7.304 6.188l-.103.447c3.709 1.716 4.69 5.136 3.852 8.763-.837 3.627-3.218 6.271-7.304 6.187l-.103.447c3.709 1.716 4.69 5.137 3.853 8.763-.838 3.627-3.219 6.271-7.305 6.188l-.103.447c3.709 1.716 4.69 5.136 3.853 8.763-.838 3.627-3.218 6.271-7.304 6.188l-.103.446c3.709 1.717 4.689 5.138 3.852 8.762-.838 3.629-3.218 6.272-7.304 6.188l-.103.447c3.709 1.717 4.69 5.137 3.852 8.764-.837 3.627-3.218 6.271-7.304 6.188l-.103.447c3.709 1.716 4.689 5.137 3.852 8.763-.837 3.627-3.218 6.271-7.304 6.187l-.103.447c3.709 1.716 4.69 5.137 3.852 8.763-.837 3.627-3.218 6.272-7.304 6.188l-.103.447c3.709 1.715 4.934 5.192 4.096 8.819-.33 1.429-.77 2.732-1.679 3.731z" fill="#FFF"/><path d="M112.564 175.804l-7.552 1.916-11.083.005-11.658-2.04-10.827-3.151 25.518-7.461-6.632-5.383 5.976.438-6.263-5.127 5.926 1.026-1.981-1.658-2.969-5.705-2.069-6.437-1.012-6.286 4.341 4.545 21.249 16.599 4.59-2.164 4.78-.779 3.375.779 3.955 2.796.709 3.302 5.145 3.67-7.389-.322-8.089 3.596-1.556 2.856-6.484 4.985m18.373-14.785l-2.244 3.348m2.244-3.348l-5.381-1.243m0 0l-.523 6.131m.523-6.131l.717-4.855m-8.155 0l1.962 5.599m0 0l2.818-6.378m-2.818 6.378l4.953 5.387m.523-6.131l-2.658-5.634m-2.294 13.821l-4.606-2.579m4.082-4.864l.524 7.443m-4.606-2.579l-4.313-4.29m4.313 4.29l2.12-10.463m-6.433 6.173l1.843-4.009m-16.566 7.988l5.049-1.403m-5.705-3.542l5.705 3.542M88.95 142.227l7.359 1.331m0 0l-4.315 6.764m3.975 5.705l6.427 2.603m-.204-.047l7.293-4.592m-17.491-3.669l17.491 3.669m-7.293 4.592l9.493 2.511m-9.931 2.517l6.262 4.673m-6.262-4.673l9.931-2.517m-3.669 7.19l7.982-2.9m-8.182 2.853l11.232 2.582m-11.232-2.582l4.748 7.567m-7.552 1.916l-7.723-6.089m10.727-3.347l-10.727 3.347m4.722-7.961l-4.722 7.961m0 0l-9.837-3.672m0 0l6.477 9.766m-6.477-9.766l-5.181 7.726" stroke="#A0A0A0" fill="none"/><path d="M289.338 206.198v-.001l11.587-2.291-9.59-6.681v-.001h-.002v.001l-6.401 2.438 6.401-2.439v-.002l.001-.001 9.591 6.685.001-.001 3.11 7.366-.001.004-3.111-7.366-8.002 6.393-.001-.001 8.004-6.395zm18.939-15.583l-7.253-1.674-3.975 4.04 7.333-7.454-18.797-.197-.048-.03h-.001l-.017-.01.014.026-.004.015h-.02l.018.011-5.264 22.987-.001.005.003-.004 6.927 4.938 5.172 3.709 14.32 10.133-.193-4.837 6.816-2.832 2.991-12.954 1.99-8.62 1.083-4.691z" fill="#C53D56"/><path d="M304.035 211.275l4.691 7.109 4.487-7.509z" fill="#D23F57"/><path d="M313.307 219.441l-.094-8.566 3.085-4.388z" fill="#DA3B54"/><path d="M300.799 222.942l1.915-5.946 3.777 5.277z" fill="#AF3750"/><path d="M306.491 222.273l2.235-3.889 4.581 1.057z" fill="#C53D56"/><path d="M292.388 216.936l5.206-.266 3.205 6.272z" fill="#D23F57"/><path d="M292.921 210.301l-.533 6.635 5.206-.266zm4.673 6.369l3.204 6.272 1.916-5.946z" fill="#C53D56"/><path d="M302.714 216.996l3.777 5.277 2.235-3.889z" fill="#E2445C"/><path d="M280.263 208.329l9.075-2.131-2.146 7.07z" fill="#C53D56"/><path d="M289.338 206.198l-2.146 7.07 5.729-2.967z" fill="#D23F57"/><path d="M287.192 213.268l5.729-2.967-.533 6.635zm21.534 5.116l4.581 1.057-.094-8.566z" fill="#AF3750"/><path d="M304.035 211.275l-6.441 5.395-4.674-6.366z" fill="#E2445C"/><path d="M304.035 211.275l4.691 7.109-6.012-1.388z" fill="#C53D56"/><path d="M297.594 216.67l5.12.326 1.321-5.721z" fill="#AF3750"/><path d="M313.213 210.875l5.075-13.008-10.549 4.615z" fill="#D23F57"/><path d="M316.298 206.487l-3.085 4.388 5.075-13.008z" fill="#AF3750"/><path d="M291.335 197.224l-6.403 2.439 4.406 6.535z" fill="#C53D56"/><path d="M300.925 203.906l-11.587 2.292 3.583 4.103z" fill="#AF3750"/><path d="M304.035 211.275l-11.115-.971 8.004-6.396z" fill="#C53D56"/><path d="M291.333 197.224l-1.996 8.973 11.588-2.291z" fill="#E2445C"/><path d="M307.739 202.482l5.474 8.393-9.178.4z" fill="#C53D56"/><path d="M307.739 202.482l-6.814 1.422 3.111 7.367zm-22.807-2.819l-4.669 8.666 9.075-2.131z" fill="#E2445C"/><path d="M307.739 202.482l10.549-4.615-10.011-7.252z" fill="#C53D56"/><path d="M307.739 202.482l.538-11.867-7.352 13.291z" fill="#AF3750"/><path d="M300.925 203.906l-3.89-10.911 11.242-2.38z" fill="#C53D56"/><path d="M297.042 192.962l-5.708 4.259 9.591 6.685z" fill="#D23F57"/><path d="M285.519 185.29l11.523 7.672-5.71 4.261z" fill="#E2445C"/><path d="M285.536 185.3l5.797 11.924-6.401 2.439z" fill="#AF3750"/><path d="M285.536 185.3l-.604 14.363-4.67 8.671z" fill="#C53D56"/><path d="M318.288 197.867l-10.012-7.252 11.095 2.561z" fill="#E2445C"/><path d="M308.277 190.615l-7.253-1.674-3.989 4.054z" fill="#AF3750"/><path d="M304.382 185.527l-7.347 7.468-11.526-7.664z" fill="#C53D56"/><path d="M300.799 222.942l5.692-.669.193 4.837z" fill="#D23F57"/><path d="M121.338 199.763L253.607 230.3l-2.249 9.744-132.27-30.537 2.25-9.744zm-5.297 22.383l87.336 20.163-2.249 9.743-87.336-20.163 2.249-9.743zm-5.398 23.385l99.993 23.085-2.25 9.743-99.993-23.085 2.25-9.743z" fill="#E4E4E4"/><g><path d="M212.852 461.664c.388-1.293.932-2.701 1.987-3.72 2.677-2.586 6.635-2.967 9.321-1.391l.33-.319c-1.481-2.739-1.135-6.862 1.542-9.447 2.678-2.586 6.809-2.787 9.496-1.211l.33-.319c-1.482-2.74-1.136-6.862 1.541-9.447 2.678-2.586 6.809-2.787 9.496-1.211l.33-.319c-1.481-2.74-1.135-6.862 1.542-9.448 2.678-2.586 6.81-2.788 9.496-1.212l.331-.319c-1.482-2.739-1.137-6.86 1.541-9.447 2.676-2.584 6.809-2.787 9.495-1.211l.33-.318c-1.481-2.74-1.136-6.862 1.542-9.447 2.678-2.587 6.809-2.788 9.495-1.212l.331-.319c-1.482-2.74-1.136-6.862 1.542-9.447 2.677-2.586 6.809-2.788 9.495-1.211l.33-.319c-1.481-2.74-1.136-6.862 1.542-9.447 2.678-2.586 6.809-2.788 9.495-1.211l.33-.319c-1.481-2.74-1.135-6.862 1.542-9.448 2.678-2.585 6.809-2.787 9.495-1.21l.33-.319c-1.481-2.74-.961-6.683 1.717-9.269.98-.946 2.302-1.421 3.507-1.785L121.734 151.375c-.405 1.192-1.273 2.137-2.253 3.084-2.678 2.586-6.289 3.327-9.67 1.032l-.331.319c2.177 3.459 1.137 6.861-1.541 9.447-2.677 2.586-6.114 3.506-9.495 1.211l-.331.319c2.177 3.459 1.137 6.861-1.541 9.448-2.678 2.585-6.115 3.506-9.495 1.21l-.331.319c2.177 3.459 1.136 6.862-1.541 9.448-2.678 2.585-6.115 3.506-9.496 1.211l-.33.319c2.176 3.459 1.136 6.861-1.542 9.447-2.678 2.586-6.114 3.507-9.496 1.212l-.329.318c2.175 3.459 1.134 6.863-1.541 9.447-2.679 2.587-6.115 3.507-9.496 1.211l-.33.319c2.175 3.459 1.135 6.862-1.543 9.448-2.677 2.586-6.114 3.506-9.496 1.211l-.33.319c2.176 3.46 1.136 6.862-1.542 9.448-2.677 2.585-6.114 3.506-9.495 1.21l-.33.319c2.176 3.46 1.136 6.862-1.542 9.448-2.677 2.585-6.115 3.507-9.495 1.211l-.331.319c2.177 3.459 1.31 7.041-1.367 9.627-1.055 1.019-2.135 1.872-3.441 2.215z" fill="#FFF"/><path d="M119.387 218.747l-7.377-2.506-9.298-6.033-8.666-8.06-7.364-8.539 25.465 7.64-2.63-8.127 4.773 3.623-2.461-7.711 4.412 4.088-.758-2.47.616-6.401 1.771-6.525 2.575-5.823 1.165 6.176 8.781 25.494 5.028.684 4.433 1.951 2.406 2.491 1.794 4.499-1.203 3.155 2.316 5.88-6.023-4.294-8.742-1.39-2.86 1.548-8.153.65m23.462-2.394l-3.707 1.586m3.707-1.586l-3.837-3.973m0 0l-3.777 4.858m3.777-4.858l3.246-3.681m-6.839-4.442l-1.404 5.765m0 0l5.837-3.814m-5.837 3.814l1.22 7.216m3.777-4.858l.84-6.172m-9.452 10.341l-2.458-4.671m6.073-1.856l-3.615 6.527m-2.458-4.671l-1.281-5.947m1.281 5.947l7.477-7.621m-8.758 1.674l3.73-2.358m-18.244-2.324l4.998 1.574m-2.855-6.078l2.855 6.078m.725-25.097l5.446 5.124m0 0l-7.302 3.322m.227 6.95l3.972 5.683m-.145-.15l8.617.121m-12.671-12.604l12.671 12.604m-8.617-.121l6.593 7.276m-9.699-3.298l2.707 7.33m-2.707-7.33l9.699 3.298m-6.992 4.032l8.273 1.915m-8.416-2.063l8.014 8.282m-8.014-8.282l-.139 8.932m-7.377-2.506l-3.161-9.314m10.82 3.036l-10.82-3.036m8.296-4.104l-8.296 4.104m0 0l-6.25-8.437m0 0l.113 11.718m-.113-11.718l-8.553 3.658" stroke="#A0A0A0" fill="none"/><path d="M250.736 340.707v-.001l10.966 4.389-4.405-10.826.001-.001h-.001v-.001l-.001.001-6.697-1.442 6.698 1.441v-.001h.002l4.403 10.829-1.403 7.872-.003.002 1.403-7.872-10.193 1.003v-.001l10.196-1.004zm24.37-2.754l-5.171-5.355-5.534 1.224 10.21-2.258-15.658-10.403-.024-.051-.009-.018-.003.029-.011.011-.017-.011.009.019-16.934 16.412-.003.003.004-.002 3.12 7.915 2.317 5.927 6.491 16.298 2.473-4.162 7.259 1.337 9.563-9.235 6.364-6.146 3.463-3.344z" fill="#C53D56"/><path d="M260.296 352.969l.063 8.517 7.853-3.854z" fill="#D23F57"/><path d="M263.625 364.868l4.587-7.236 4.976-1.999z" fill="#DA3B54"/><path d="M251.227 360.992l4.846-3.944.293 6.483z" fill="#AF3750"/><path d="M256.366 363.531l3.993-2.044 3.266 3.381z" fill="#C53D56"/><path d="M247.445 351.373l4.512 2.613-.73 7.006z" fill="#D23F57"/><path d="M251.506 346.099l-4.061 5.274 4.511 2.613zm.451 7.887l-.73 7.006 4.846-3.944z" fill="#C53D56"/><path d="M256.073 357.048l.293 6.483 3.993-2.045z" fill="#E2445C"/><path d="M241.964 337.552l8.772 3.155-5.651 4.761z" fill="#C53D56"/><path d="M250.736 340.707l-5.651 4.761 6.421.631z" fill="#D23F57"/><path d="M245.085 345.468l6.421.631-4.061 5.274zm15.274 16.018l3.266 3.382 4.587-7.235z" fill="#AF3750"/><path d="M260.296 352.969l-8.34 1.017-.453-7.885z" fill="#E2445C"/><path d="M260.296 352.969l.063 8.517-4.286-4.438z" fill="#C53D56"/><path d="M251.956 353.986l4.117 3.062 4.223-4.079z" fill="#AF3750"/><path d="M268.212 357.632l11.34-8.145-11.36-1.875z" fill="#D23F57"/><path d="M273.188 355.633l-4.976 1.999 11.34-8.145z" fill="#AF3750"/><path d="M257.298 334.268l-6.699-1.442.137 7.881z" fill="#C53D56"/><path d="M261.702 345.095l-10.966-4.388.77 5.392z" fill="#AF3750"/><path d="M260.296 352.969l-8.793-6.868 10.196-1.004z" fill="#C53D56"/><path d="M257.297 334.267l-6.562 6.439 10.967 4.389z" fill="#E2445C"/><path d="M268.192 347.612l.02 10.02-7.916-4.663z" fill="#C53D56"/><path d="M268.192 347.612l-6.489-2.518-1.403 7.873zm-17.593-14.785l-8.635 4.725 8.772 3.155z" fill="#E2445C"/><path d="M268.192 347.612l11.36 1.875-4.446-11.534z" fill="#C53D56"/><path d="M268.192 347.612l6.914-9.659-13.404 7.142z" fill="#AF3750"/><path d="M261.702 345.095l2.679-11.269 10.725 4.127z" fill="#C53D56"/><path d="M264.406 333.802l-7.107.463 4.403 10.83z" fill="#D23F57"/><path d="M258.92 321.092l5.486 12.711-7.11.463z" fill="#E2445C"/><path d="M258.929 321.11l-1.632 13.157-6.698-1.44z" fill="#AF3750"/><path d="M258.929 321.11l-8.33 11.717-8.638 4.728z" fill="#C53D56"/><path d="M279.552 349.487l-4.446-11.535 7.909 8.191z" fill="#E2445C"/><path d="M275.106 337.953l-5.171-5.355-5.554 1.228z" fill="#AF3750"/><path d="M274.611 331.564l-10.23 2.262-5.492-12.705z" fill="#C53D56"/><path d="M251.227 360.992l5.139 2.539-2.473 4.162z" fill="#D23F57"/><path d="M113.343 243.811l94.299 97.649-7.193 6.947-94.299-97.65 7.193-6.946zm-16.632 15.887l62.264 64.476-7.193 6.947-62.264-64.477 7.193-6.946zm-17.264 16.671l71.288 73.821-7.193 6.947-71.289-73.821 7.194-6.947z" fill="#E4E4E4"/></g></svg>