<?xml version="1.0" encoding="UTF-8"?>
<!DOCTYPE svg PUBLIC "-//W3C//DTD SVG 1.1//EN" "http://www.w3.org/Graphics/SVG/1.1/DTD/svg11.dtd">
<!-- Creator: CorelDRAW Home & Student X7 -->
<svg xmlns="http://www.w3.org/2000/svg" xml:space="preserve" width="30px" height="48px" version="1.1" style="shape-rendering:geometricPrecision; text-rendering:geometricPrecision; image-rendering:optimizeQuality; fill-rule:evenodd; clip-rule:evenodd"
viewBox="0 0 3000000 4839247"
 xmlns:xlink="http://www.w3.org/1999/xlink">
 <defs>
  <style type="text/css">
   <![CDATA[
    .fil0 {fill:white}
   ]]>
  </style>
 </defs>
 <g id="Warstwa_x0020_1">
  <metadata id="CorelCorpID_0Corel-Layer"/>
  <g id="_753729432">
   <path class="fil0" d="M847583 3429626c139557,2977 148249,-52274 128721,-185758 -114313,-783639 -682067,-769350 -783044,-1546559 -100976,-778043 440343,-1408669 1099548,-1498571 805311,-109907 1430221,463563 1513098,1140629 52513,428792 -89426,775660 -301976,1017742 -118243,134675 -192427,180876 -304121,361157 -91212,147178 -133246,277685 -161586,485830l-1079304 270779c-127292,20600 -183615,22386 -185521,161229 131698,92641 522029,-56561 697071,-102286 230055,-60134 534770,-121696 729698,-197190 98952,-567278 210407,-580734 488926,-912598 712788,-849250 156465,-2456061 -1232437,-2423554 -1379971,32270 -1851036,1666588 -1102405,2485473 517385,565968 365563,766254 493332,943677z"/>
   <path class="fil0" d="M1240176 3161824l121815 5240c126459,-277209 -61562,-743392 -114670,-1007145 168611,48821 56204,105978 210288,167778 121457,-23696 102643,-97880 251607,-153489 -62276,243511 -238985,744582 -122291,993451l108121 2620c62634,-100858 64301,-482853 101215,-641105 36675,-157538 180519,-447012 126578,-567397 -193856,-57395 -324482,51560 -441534,113360 -86449,-53703 -213027,-156585 -381281,-133961 -188259,25364 -50488,223268 -7264,353299 39652,118957 74304,262205 94785,398547 22862,151465 3810,360443 52631,468802z"/>
   <path class="fil0" d="M791260 4397237l4644 111575c130150,52988 895689,-170993 1141581,-231603 145273,-35842 303048,-28340 268040,-201477 -142058,-78471 -551203,77995 -709574,119076 -165872,42987 -606930,128007 -704691,202429z"/>
   <path class="fil0" d="M801977 4078828c150274,43820 909740,-179804 1162300,-242796 88950,-22148 357228,-71564 230174,-195046 -73589,-71684 -929507,182186 -1139795,234103 -155751,38462 -306740,21434 -252679,203739z"/>
   <path class="fil0" d="M1079186 4565135c-96928,318171 658728,362586 833174,115980 60967,-86211 14170,-187426 -97880,-142415 -67516,27268 -111217,87640 -221363,113003 -280781,64658 -337104,-141701 -513931,-86568z"/>
  </g>
 </g>
</svg>
