<?xml version="1.0" encoding="UTF-8"?>
<!DOCTYPE svg PUBLIC "-//W3C//DTD SVG 1.1//EN" "http://www.w3.org/Graphics/SVG/1.1/DTD/svg11.dtd">
<!-- Creator: CorelDRAW Home & Student X7 -->
<svg xmlns="http://www.w3.org/2000/svg" xml:space="preserve" width="33px" height="48px" version="1.1" style="shape-rendering:geometricPrecision; text-rendering:geometricPrecision; image-rendering:optimizeQuality; fill-rule:evenodd; clip-rule:evenodd"
viewBox="0 0 3300236 4798969"
 xmlns:xlink="http://www.w3.org/1999/xlink">
 <defs>
  <style type="text/css">
   <![CDATA[
    .fil0 {fill:white}
   ]]>
  </style>
 </defs>
 <g id="Warstwa_x0020_1">
  <metadata id="CorelCorpID_0Corel-Layer"/>
  <g id="_827261656">
   <path class="fil0" d="M300172 4292976l0 -3449378c0,-13343 -118,-12989 2480,-25624 354,-1535 2834,-2834 3070,-6259 354,-3306 2598,-3660 3897,-5550l0 -9446c0,-44518 -237,-17713 9328,-28105l9447 -9328 0 -9447 9329 -9329 0 -9328 9328 -9447 9447 -9329 9329 -9329 9329 -9446 9446 -9329 9329 -9447 9447 0 9329 -9329 9328 0 9447 -9328 18776 -9447 9328 0c9329,-6141 2362,-3779 19366,-8738 2834,-827 12872,-591 18067,-591l28104 0c18067,-11454 -20664,-4133 27750,-9801 32946,-3897 164965,-4723 187873,9801l0 562438c6141,9329 3897,2362 8739,19248 826,2834 590,12990 590,18185l0 9329 9447 18776 0 9446 9329 9329 0 9329 9446 9328 0 9447 9329 9329 9329 9447 9447 9328 0 9329 9328 9447 18776 9329 9329 9446 9446 9329 9329 9329 9329 0 9447 9447 9328 0 9447 9328 9329 0 18775 9329 18658 0c8266,0 19484,-590 27513,709 19130,3188 9565,2479 19366,8738l1312278 0 12044 -6731c23499,-6731 -12753,945 15706,-3070 2597,-354 24207,354 28458,354l9329 0 18775 -9329 9447 0 9329 -9328 9328 0 9447 -9447 9329 0 9447 -9329 9328 -9329 9329 -9446 18776 -9329 9328 -9447 0 -9329 9447 -9328 9329 -9447 9447 -9329 0 -9447 9328 -9328 0 -9329 9329 -9329 0 -9446 9447 -18776 0 -9329c0,-13343 -236,-13107 2480,-25624 354,-1535 2834,-2834 3070,-6377 236,-3306 2598,-3660 3778,-5432l0 -562438c18067,-11454 -20664,-4133 27750,-9801 32946,-3897 164847,-4723 187873,9801l28105 0c13343,0 12989,-236 25624,2480 1535,354 5196,5078 6259,3070 1062,-2007 3660,2598 5668,3779l9328 0 18658 9447 9447 9328 9328 0 9447 9329 9329 0 9328 9447 9447 9329 9329 9446 9447 9329 9328 9329 9329 9447 0 9328 9447 9329 0 9447 9329 9328c9565,10392 9328,-16413 9328,28105l0 9446c6259,9329 3897,2362 8739,19366 826,2834 708,12872 708,18067l0 3449378c0,13343 236,12989 -2480,25624 -354,1535 -2834,7440 -3070,6259 -354,-1181 -2598,3660 -3897,5550l0 9446 -9328 18658 0 9447 -9329 9328 0 9329 -9447 9447 0 9329 -9329 9446 -9328 9329 -9447 9329 -9329 9447 -9447 9328 -9328 0 -9329 9447 -9447 9329 -9328 0 -9447 9328 -9329 0 -18657 9329 -9447 0c-9329,6259 -2362,3897 -19366,8857 -2834,826 -12871,590 -18067,590l-2287068 0c-13344,0 -13107,236 -25624,-2480 -1535,-354 -5196,-472 -6377,-3070 -1063,-2598 -3661,-2598 -5550,-3897l-9329 0 -18775 -9329 -9329 0 -9447 -9328 -9328 0 -9329 -9329 -9447 -9447 -9329 0 -9446 -9328 -9329 -9447 -9329 -9329 -9447 -9329 -9328 -18775 -9329 -9447 0 -9329 -9447 -9328 0 -9447 -9328 -18658 0 -9446c-6141,-9329 -3897,-2362 -8739,-19366 -826,-2834 -708,-12872 -708,-18067zm731181 -3636778l1237294 0 0 487336 -1237294 0 0 -487336zm506112 -421800l0 -28104c0,-13461 -236,-13107 2480,-25624 354,-1653 2834,-2952 3070,-6377 354,-3306 2598,-3660 3779,-5550l9447 -9328 0 -9447 9328 -9329 9447 -9329 9329 -9446 9329 0 9446 -9329 9329 0c10391,-9565 -16414,-9447 28104,-9447l18776 0c44518,0 17831,-118 28104,9447l9447 0 9328 9329 9329 0 9447 9446 9329 9329 9328 9329 0 9447 9447 9328c9565,10392 9329,-16414 9329,28104l0 37551c0,44518 236,17713 -9329,28105l-9447 9328 0 9447 -9328 9329 -9329 9329 -9447 9446 -9329 0 -9328 9329c-10392,9565 16295,9447 -28223,9447l-37432 0c-44518,0 -17831,118 -28105,-9447l-9446 -9329 -9329 0 -9329 -9446 -9447 -9329 -9328 -9329 0 -9447 -9447 -9328c-9565,-10392 -9329,16413 -9329,-28105zm-206176 -224951l-9447 0 -18657 9328 -18776 9329 -18775 9447 -9329 9329 -9447 9328 -18657 18776 -9447 9447 -9329 9328 -9328 9329 -9447 18776 -9329 18775c0,44518 118,17831 -9447,28104l0 9329c0,8266 591,19484 -590,27514 -3188,19130 -2480,9565 -8738,19366l0 112535 -684302 0c-9447,6022 -1417,4487 -19366,8620 -5668,1299 -21137,708 -27396,708l-18775 0 -18776 9329 -18775 0 -18658 9447 -9447 0 -18657 9328 -18775 9447 -9447 0 -9329 9329 -9329 0 -9446 9329 -18658 9446 -9447 9329 -9328 0 -9447 9447 -9329 9329 -9329 0 -9446 9328 -9329 9447 -9447 9329 -9329 9329 -9328 9446 -9447 9329 -9329 9447 -9328 9329 -9447 9328 -9329 9447 -9447 18657 -9328 9447 -9329 9329 0 9447 -9447 9328 -9329 18776 -9328 9329 0 9328 -9447 18776 -9329 18775 0 9329 -9447 9447 0 9329c0,44518 237,17830 -9328,28104l0 9447 -9329 18657 0 18775c0,10392 945,27160 -709,36843 -3070,19130 -2479,9565 -8738,19366l0 3486810c6141,9565 4487,1535 8738,19484 1299,5668 709,21137 709,27396l0 18775c9565,10392 9329,-16413 9329,28105l0 9446c9565,10274 9328,-16413 9328,28105l9447 18775 0 9329 9329 18657 9447 18776 9328 18775 9329 9329 0 9447 9447 9328 0 9329 9329 9447 9328 9329 9447 9446 0 9329 9329 9329 9447 9447 9328 9328 9329 9447 9447 9329 9328 9328 9329 9447 9447 9329 9329 9329 9446 0 9329 9446 9329 9329 9447 9447 9328 0 9447 9329 9329 0 9329 9328 18775 9447 18776 9329 18775 9329 9329 0 18775 9446 9329 0 18775 9329 9329 0c44518,0 17831,-236 28104,9447l18776 0c10391,0 27159,-945 36842,590 19130,3070 9565,2480 19366,8739l2305844 0c9801,-6259 236,-5669 19366,-8739 9801,-1535 26451,-590 36842,-590l18776 0c10391,-9683 -16414,-9447 28104,-9447l9328 0 18776 -9329 9447 0 18657 -9446 9447 0 18657 -9329 18776 -9329 18775 -9447 9329 -9328 9447 0 9329 -9329 9328 0 9447 -9447 9329 -9329 9447 -9446 9328 0 9329 -9329 9447 -9329 9328 -9447 9329 -9328 9447 -9329 9329 -9447 9446 -9328 9329 -9447 9329 -9329 0 -9329 9447 -9446 9328 -9329 9447 -9447 0 -9329 9329 -9328 0 -9447 9329 -9329 9328 -18775 9447 -18776 9329 -18657 0 -9329 9447 -18775c0,-44518 -237,-17831 9328,-28105l0 -9446c0,-44518 -236,-17713 9329,-28105l0 -18775c0,-8148 -590,-19484 708,-27396 3189,-19248 2480,-9565 8739,-19484l0 -3486810 -9801 -27750c-355,-2598 354,-24207 354,-28459l0 -18775 -9329 -18657 0 -9447c-9565,-10274 -9328,16414 -9328,-28104l0 -9329 -9447 -9447 0 -9329 -9329 -18775 -9447 -18776 0 -9328 -9328 -9329 -9329 -18776 -9329 -9328 0 -9447 -9447 -9329 -9328 -9447 0 -9328 -9447 -9329 -9329 -9447 -9329 -9328 -9446 -9329 -9329 -9447 -9447 -9329 -9329 -9446 -9328 -9329 -9447 -9329 -9329 -9447 -9328 -9328 -9447 0 -9329 -9329 -9447 -9447 -9328 0 -9329 -9329 -18776 -9446 -9328 -9329 -9447 0 -9329 -9329 -9447 0 -18657 -9447 -18776 -9328 -9328 0 -18776 -9447 -18775 0 -18776 -9329 -18775 0c-8148,0 -19366,591 -27396,-708 -19248,-3070 -9565,-2362 -19366,-8620l-684302 0 0 -112535c-6022,-9447 -4487,-1417 -8620,-19366 -1417,-5668 -708,-21137 -708,-27514l0 -9329c-9565,-10273 -9447,16414 -9447,-28104l-9329 -18775 -9329 -18776 -9446 -9329 -9329 -9328 -9329 -18776 -9447 -9447 -9328 0 -9447 -9328 -9329 -9329 -18775 -9447 -18776 -9329 -18657 -9328 -9447 0c-8148,0 -19366,590 -27396,-709 -19248,-3188 -9565,-2480 -19484,-8738l-543544 0c-9565,6140 -1535,4487 -19484,8738 -5668,1299 -21138,709 -27396,709z"/>
   <path class="fil0" d="M1509361 3665000l-9447 -118 -9211 9447 -9328 9447 -9565 18539 0 56445 9565 18657 9328 9329 9211 9447 9447 -118c44518,236 17713,-119 28104,9446l1218518 0c10391,-9565 -16296,-9328 28222,-9328l18658 -9565 9328 -9211 0 -9329 9447 -9446 0 -9329 0 -37551 0 -9329 -9447 -9328 0 -9447 -9328 -9211 -18658 -9565c-44518,0 -17831,236 -28222,-9328l-1218518 0c-10391,9564 16414,9210 -28104,9446z"/>
   <polygon class="fil0" points="1500032,2933819 1490585,2943147 1481257,2952594 1471810,2961923 1471810,2971370 1471810,3018249 1471810,3027578 1481257,3036907 1481257,3046354 1500032,3055682 1509361,3065011 1518690,3065011 2774758,3065011 2784087,3065011 2793534,3055682 2802863,3046354 2812191,3036907 2821638,3027578 2821638,3018249 2821638,2980698 2821638,2961923 2812191,2952594 2802863,2943147 2793534,2933819 2774758,2924490 2755983,2924490 1528136,2924490 1518690,2924490 "/>
   <polygon class="fil0" points="1500032,2202755 1490585,2202755 1481257,2212084 1481257,2221413 1471928,2230860 1471810,2287068 1471810,2296515 1481257,2305843 1490585,2315172 1500032,2324383 1518690,2333948 1537465,2333711 2755983,2333711 2765312,2333948 2784087,2324619 2793416,2324619 2802863,2315172 2812073,2305843 2821638,2287186 2821638,2277739 2821638,2240188 2821638,2230860 2812191,2221413 2802745,2202755 2793534,2202755 2784087,2193309 2774758,2193309 1509361,2193545 "/>
   <path class="fil0" d="M1040682 665526l1218518 0 0 468679 -1218518 0 0 -468679zm-9329 478008l1237294 0 0 -487336 -1237294 0 0 487336z"/>
   <path class="fil0" d="M2774758 2193309l-28576 -8857c-8384,-1181 -27396,-1063 -36488,-1063 -194958,591 -1064890,-8502 -1163136,237 -20547,1771 1535,-1536 -16650,2243 -20665,4369 -8739,0 -20547,7676l1265397 -236z"/>
   <path class="fil0" d="M2755983 2333711l-1218518 0c36606,23736 1003603,8503 1143888,9920l54083 -2244c20665,-4369 8738,0 20547,-7676z"/>
   <path class="fil0" d="M2774758 3065011l-1256068 0c2007,1299 5432,236 6494,2952l1174945 6849c28104,236 54437,3070 74629,-9801z"/>
   <path class="fil0" d="M2755983 2924490l-1207300 -7557c-20192,4133 -9210,354 -20547,7557l1227847 0z"/>
   <path class="fil0" d="M740746 637422c-22908,-14524 -154927,-13698 -187873,-9801 -48414,5668 -9683,-1653 -27750,9801l215623 0z"/>
   <path class="fil0" d="M2774758 637422c-23026,-14524 -154927,-13698 -187873,-9801 -48414,5668 -9683,-1653 -27750,9801l215623 0z"/>
   <path class="fil0" d="M1471810 2287068l118 -56208c-6849,8856 -11100,-17123 -10273,28104 944,47824 2125,15705 10155,28104z"/>
   <path class="fil0" d="M1471810 3758760l0 -56445c-6259,8502 -11100,-16059 -10155,28222 1062,47943 1889,15588 10155,28223z"/>
   <path class="fil0" d="M236 824823c6259,-9801 5668,-236 8738,-19366 1654,-9683 709,-26451 709,-36843 -6259,9802 -5668,237 -8738,19366 -1654,9801 -709,26451 -709,36843z"/>
   <path class="fil0" d="M497019 4799088c-9801,-6259 -236,-5669 -19366,-8739 -9683,-1535 -26451,-590 -36842,-590 9801,6140 236,5550 19366,8738 1889,236 3897,472 6140,591l28695 0 2007 0z"/>
   <path class="fil0" d="M2859071 4789759c-10391,0 -27041,-945 -36842,590 -19130,3070 -9565,2480 -19366,8739l3070 0 33064 0c5668,-1063 10982,-3661 20074,-9329z"/>
   <path class="fil0" d="M1471810 3018249l0 -46879c-11927,15823 -8266,-19602 -9093,19720 -944,47234 -236,14642 9093,27159z"/>
   <path class="fil0" d="M3299646 824823c0,-4251 708,-25861 354,-28459 -4015,-28458 3661,7912 -3070,-15705 -591,-1889 -2598,-4723 -3070,-6258 -591,-1417 -2362,-3897 -3661,-5787 0,4252 -709,25861 -354,28459l9801 27750z"/>
   <path class="fil0" d="M2868400 346815c-9801,-6258 -118,-5550 -19366,-8620 -7912,-1299 -19248,-708 -27396,-708 9801,6258 118,5550 19366,8620 8030,1299 19248,708 27396,708z"/>
   <path class="fil0" d="M3290199 4358513c6377,-9801 5668,-236 8738,-19366 1299,-8030 709,-19248 709,-27514 -6259,9919 -5550,236 -8739,19484 -1298,7912 -708,19248 -708,27396z"/>
   <path class="fil0" d="M1968593 9447c-9801,-6377 -118,-5550 -19366,-8738 -2125,-355 -4487,-591 -6967,-709l-472 0 -17595 0 -2480 0c9919,6258 236,5550 19484,8738 8030,1299 19248,709 27396,709z"/>
   <path class="fil0" d="M1162546 224952c6258,-9801 5550,-236 8738,-19366 1181,-8030 590,-19248 590,-27514 -6258,9919 -5550,236 -8620,19484 -1299,8030 -708,19248 -708,27396z"/>
   <path class="fil0" d="M993802 1434141c-9801,-6259 -236,-5550 -19366,-8738 -8029,-1299 -19247,-709 -27513,-709 9919,6377 236,5668 19484,8738 7911,1299 19247,709 27395,709z"/>
   <path class="fil0" d="M9683 4358513c0,-6259 590,-21728 -709,-27396 -4251,-17949 -2597,-9919 -8738,-19484 0,6377 -590,21846 709,27514 4251,17831 2598,9919 8738,19366z"/>
   <path class="fil0" d="M1378169 0l-1654 0 -19602 0c-2479,118 -4723,354 -6258,709 -17831,4251 -9801,2597 -19366,8738 6258,0 21728,590 27396,-709 17949,-4251 9919,-2598 19484,-8738z"/>
   <path class="fil0" d="M2137336 224952c0,-6259 709,-21728 -708,-27396 -4133,-17949 -2598,-9919 -8620,-19484 0,6377 -709,21846 708,27514 4133,17949 2598,9919 8620,19366z"/>
   <path class="fil0" d="M478244 337487c-6259,0 -21728,-591 -27396,708 -17949,4133 -9801,2598 -19366,8620 6259,0 21728,591 27396,-708 17949,-4133 9919,-2598 19366,-8620z"/>
   <path class="fil0" d="M2821638 3749313c11454,-9683 10510,15469 7912,-18776 -1417,-20310 118,-8029 -7912,-18775l0 37551z"/>
   <path class="fil0" d="M2821638 3018249c11454,-9682 10510,15470 7912,-18775 -1417,-20429 118,-8148 -7912,-18776l0 37551z"/>
   <path class="fil0" d="M2821638 2277739c11572,-9683 10392,15587 7912,-18775 -1417,-20193 0,-8266 -7912,-18776l0 37551z"/>
   <path class="fil0" d="M1537465 3805521c-10391,-9565 16414,-9210 -28104,-9446 10391,9801 -16650,9446 28104,9446z"/>
   <path class="fil0" d="M1537465 3655554c-44754,0 -17713,-355 -28104,9446 44518,-236 17713,118 28104,-9446z"/>
   <path class="fil0" d="M1696880 318711c-44518,0 -17831,-236 -28223,9447 44518,0 17831,118 28223,-9447z"/>
   <path class="fil0" d="M1631225 328158c-10392,-9683 16413,-9447 -28105,-9447 10274,9565 -16413,9447 28105,9447z"/>
   <path class="fil0" d="M19012 4405393c0,-44518 236,-17713 -9329,-28105 0,44518 -236,17713 9329,28105z"/>
   <path class="fil0" d="M28340 4442944c0,-44518 237,-17831 -9328,-28105 0,44518 -237,17713 9328,28105z"/>
   <path class="fil0" d="M3280870 4405393c9565,-10392 9329,16413 9329,-28105 -9565,10392 -9329,-16413 -9329,28105z"/>
   <path class="fil0" d="M3271542 4442944c9564,-10392 9328,16413 9328,-28105 -9565,10274 -9328,-16413 -9328,28105z"/>
   <path class="fil0" d="M1640553 103088c-44518,0 -17713,-118 -28104,9447 44518,0 17831,236 28104,-9447z"/>
   <path class="fil0" d="M309619 796719c9564,-10274 9328,16413 9328,-28105 -9565,10392 -9328,-16413 -9328,28105z"/>
   <path class="fil0" d="M2990263 796719c0,-44518 237,-17713 -9328,-28105 0,44518 -237,17831 9328,28105z"/>
   <path class="fil0" d="M1687433 112535c-10273,-9565 16414,-9447 -28104,-9447 10391,9683 -16414,9447 28104,9447z"/>
   <path class="fil0" d="M1762417 196847c0,-44518 236,-17712 -9329,-28104 0,44518 -236,17831 9329,28104z"/>
   <path class="fil0" d="M422035 4789759c-10273,-9683 16414,-9447 -28104,-9447 10392,9565 -16414,9447 28104,9447z"/>
   <path class="fil0" d="M2905951 4780312c-44518,0 -17713,-236 -28104,9447 44518,0 17712,118 28104,-9447z"/>
   <path class="fil0" d="M1753088 262503c9565,-10392 9329,16413 9329,-28105 -9565,10274 -9329,-16413 -9329,28105z"/>
   <path class="fil0" d="M1546794 262503c0,-44518 236,-17831 -9329,-28105 0,44518 -236,17713 9329,28105z"/>
   <path class="fil0" d="M2128008 168743c0,-44518 118,-17831 -9447,-28104 0,44518 -118,17831 9447,28104z"/>
   <path class="fil0" d="M1171874 168743c9565,-10273 9447,16414 9447,-28104 -9565,10273 -9447,-16414 -9447,28104z"/>
   <path class="fil0" d="M3280870 721735c0,-44518 236,-17713 -9328,-28104 0,44518 -237,17830 9328,28104z"/>
   <path class="fil0" d="M19012 721735c9565,-10274 9328,16414 9328,-28104 -9565,10391 -9328,-16414 -9328,28104z"/>
   <path class="fil0" d="M2784205 3664882c-10391,-9447 16060,-9328 -28222,-9328 10391,9564 -16296,9328 28222,9328z"/>
   <path class="fil0" d="M2784205 3796193c-44518,0 -17831,-237 -28222,9328 44282,0 17831,118 28222,-9328z"/>
   <path class="fil0" d="M750075 1237293c0,-5195 236,-15351 -590,-18185 -4842,-16886 -2598,-9919 -8739,-19248 0,5196 -118,15233 591,18067 4959,17005 2598,10038 8738,19366z"/>
   <path class="fil0" d="M309619 4330409c0,-5196 118,-15351 -709,-18067 -4841,-17005 -2480,-10038 -8738,-19366 0,5195 -118,15233 708,18067 4842,17004 2598,10037 8739,19366z"/>
   <path class="fil0" d="M2830967 4489705c-5196,0 -15351,-118 -18067,709 -17004,4841 -10037,2598 -19366,8738 5196,0 15233,236 18067,-590 17004,-4960 10037,-2598 19366,-8857z"/>
   <path class="fil0" d="M2999710 843598c0,-5195 118,-15233 -708,-18067 -4842,-17004 -2480,-10037 -8739,-19366 0,5196 -118,15233 709,18067 4841,17005 2598,10038 8738,19366z"/>
   <path class="fil0" d="M497019 637422c-5195,0 -15233,-236 -18067,591 -17004,4959 -10037,2597 -19366,8738 5196,0 15233,236 18067,-591 17005,-4841 10038,-2597 19366,-8738z"/>
   <path class="fil0" d="M2990263 4330409c1299,-1890 3543,-6731 3897,-5550 236,1181 2716,-4724 3070,-6259 2716,-12635 2480,-12281 2480,-25624 -1299,1889 -3542,2125 -3779,5550 -354,3424 -2834,4723 -3070,6258 -2716,12635 -2598,12281 -2598,25625z"/>
   <path class="fil0" d="M300172 843598c1299,-1889 3542,-6730 3897,-5550 236,1181 2716,-4723 3070,-6258 2598,-12635 2480,-12281 2480,-25625 -1299,1890 -3543,2244 -3897,5550 -236,3425 -2716,4724 -3070,6259 -2598,12635 -2480,12281 -2480,25624z"/>
   <path class="fil0" d="M1537465 206294c1181,-1889 3543,-6731 3779,-5668 354,1299 2834,-4723 3070,-6258 2716,-12635 2480,-12281 2480,-25625 -1181,1890 -3425,2244 -3779,5550 -236,3425 -2716,4724 -3070,6377 -2716,12517 -2480,12163 -2480,25624z"/>
   <path class="fil0" d="M506466 4499152c-1889,-1299 -4487,-5786 -5550,-3779 -1181,2008 -4841,-2716 -6377,-3070 -12517,-2716 -12280,-2598 -25624,-2598 1889,1299 4487,1299 5550,3897 1181,2598 4842,2716 6377,3070 12517,2716 12280,2480 25624,2480z"/>
   <path class="fil0" d="M2840414 646751c-2008,-1181 -4606,-5786 -5668,-3779 -1063,2008 -4724,-2716 -6259,-3070 -12635,-2716 -12281,-2480 -25624,-2480 1889,1181 4487,1299 5550,3779 1062,2598 4723,2716 6258,3070 12635,2716 12281,2480 25743,2480z"/>
   <path class="fil0" d="M2549807 1237293c1181,-1889 3424,-6730 3778,-5550 237,1181 2716,-4723 3071,-6376 2716,-12517 2479,-12163 2479,-25507 -1180,1772 -3542,2126 -3778,5432 -236,3543 -2716,4842 -3070,6377 -2716,12517 -2480,12281 -2480,25624z"/>
   <path class="fil0" d="M2362288 1424694c-4251,0 -25861,-708 -28458,-354 -28459,4015 7793,-3661 -15706,3070l-12044 6731 56208 -9447z"/>
   <polygon class="fil0" points="253410,412470 243963,421799 "/>
   <polygon class="fil0" points="3055919,421799 3046590,412470 "/>
   <polygon class="fil0" points="234635,421799 225188,431246 "/>
   <polygon class="fil0" points="3074694,431246 3065247,421799 "/>
   <polygon class="fil0" points="225188,431246 215859,440575 "/>
   <polygon class="fil0" points="3084023,440575 3074694,431246 "/>
   <polygon class="fil0" points="206530,440575 197084,449903 "/>
   <polygon class="fil0" points="3102798,449903 3093470,440575 "/>
   <polygon class="fil0" points="197084,449903 187755,459350 "/>
   <polygon class="fil0" points="3112127,459350 3102798,449903 "/>
   <polygon class="fil0" points="187755,459350 178308,468679 "/>
   <polygon class="fil0" points="3121574,468679 3112127,459350 "/>
   <polygon class="fil0" points="178308,468679 168979,478008 "/>
   <polygon class="fil0" points="3130902,478008 3121574,468679 "/>
   <polygon class="fil0" points="168979,478008 159651,487454 "/>
   <polygon class="fil0" points="3140231,487454 3130902,478008 "/>
   <polygon class="fil0" points="159651,487454 150204,496783 "/>
   <polygon class="fil0" points="3149678,496783 3140231,487454 "/>
   <polygon class="fil0" points="150204,496783 140875,506230 "/>
   <polygon class="fil0" points="3159007,506230 3149678,496783 "/>
   <polygon class="fil0" points="3168453,515559 3159007,506230 "/>
   <polygon class="fil0" points="131547,515559 122100,524887 "/>
   <polygon class="fil0" points="3177782,524887 3168453,515559 "/>
   <polygon class="fil0" points="122100,524887 112771,534334 "/>
   <polygon class="fil0" points="3187111,534334 3177782,524887 "/>
   <polygon class="fil0" points="3196558,543663 3187111,534334 "/>
   <polygon class="fil0" points="103324,552991 112771,534334 "/>
   <polygon class="fil0" points="103324,552991 93996,562438 "/>
   <polygon class="fil0" points="3205886,562438 3196558,552991 "/>
   <polygon class="fil0" points="93996,562438 84667,571767 "/>
   <polygon class="fil0" points="3215333,571767 3205886,562438 "/>
   <polygon class="fil0" points="84667,581214 75220,590542 "/>
   <polygon class="fil0" points="3224662,590542 3215333,581214 "/>
   <polygon class="fil0" points="65891,609318 75220,590542 "/>
   <polygon class="fil0" points="3233991,609318 3224662,590542 "/>
   <polygon class="fil0" points="65891,609318 56563,618647 "/>
   <polygon class="fil0" points="3243319,618647 3233991,609318 "/>
   <polygon class="fil0" points="47116,646751 56563,627975 "/>
   <polygon class="fil0" points="3252766,646751 3243319,627975 "/>
   <polygon class="fil0" points="450258,646751 431482,656198 "/>
   <polygon class="fil0" points="2868400,656198 2849742,646751 "/>
   <polygon class="fil0" points="37787,665526 47116,646751 "/>
   <polygon class="fil0" points="431482,656198 422035,665526 "/>
   <polygon class="fil0" points="2877847,665526 2868400,656198 "/>
   <polygon class="fil0" points="3262095,665526 3252766,646751 "/>
   <polygon class="fil0" points="412707,665526 403378,674855 "/>
   <polygon class="fil0" points="2896622,674855 2887175,665526 "/>
   <polygon class="fil0" points="37787,674855 28340,684302 "/>
   <polygon class="fil0" points="393931,674855 384602,684302 "/>
   <polygon class="fil0" points="2915279,684302 2905951,674855 "/>
   <polygon class="fil0" points="3271542,684302 3262095,674855 "/>
   <polygon class="fil0" points="384602,684302 375156,693631 "/>
   <polygon class="fil0" points="2924726,693631 2915279,684302 "/>
   <polygon class="fil0" points="375156,693631 365827,703077 "/>
   <polygon class="fil0" points="2934055,703077 2924726,693631 "/>
   <polygon class="fil0" points="365827,703077 356498,712406 "/>
   <polygon class="fil0" points="2943502,712406 2934055,703077 "/>
   <polygon class="fil0" points="356498,712406 347051,721735 "/>
   <polygon class="fil0" points="2952830,721735 2943502,712406 "/>
   <polygon class="fil0" points="347051,721735 337723,731182 "/>
   <polygon class="fil0" points="2962159,731182 2952830,721735 "/>
   <polygon class="fil0" points="9683,749839 19012,731182 "/>
   <polygon class="fil0" points="337723,740510 328394,749839 "/>
   <polygon class="fil0" points="2971606,749839 2962159,740510 "/>
   <polygon class="fil0" points="3290199,749839 3280870,731182 "/>
   <polygon class="fil0" points="328394,759286 318947,768614 "/>
   <polygon class="fil0" points="2980935,768614 2971606,759286 "/>
   <polygon class="fil0" points="759522,1265398 750075,1246622 "/>
   <polygon class="fil0" points="2540360,1265398 2549807,1246622 "/>
   <polygon class="fil0" points="768851,1284173 759522,1274844 "/>
   <polygon class="fil0" points="2540360,1274844 2531031,1284173 "/>
   <polygon class="fil0" points="778297,1302830 768851,1293502 "/>
   <polygon class="fil0" points="2531031,1293502 2521703,1302830 "/>
   <polygon class="fil0" points="787626,1321606 778297,1312277 "/>
   <polygon class="fil0" points="2521703,1312277 2512256,1321606 "/>
   <polygon class="fil0" points="796955,1331053 787626,1321606 "/>
   <polygon class="fil0" points="2512256,1321606 2502927,1331053 "/>
   <polygon class="fil0" points="806402,1340381 796955,1331053 "/>
   <polygon class="fil0" points="2502927,1331053 2493480,1340381 "/>
   <polygon class="fil0" points="815730,1359157 806402,1349710 "/>
   <polygon class="fil0" points="2493480,1349710 2484152,1359157 "/>
   <polygon class="fil0" points="843835,1377932 834506,1368486 "/>
   <polygon class="fil0" points="2465376,1368486 2456047,1377932 "/>
   <polygon class="fil0" points="853281,1387261 843835,1377932 "/>
   <polygon class="fil0" points="2456047,1377932 2446719,1387261 "/>
   <polygon class="fil0" points="862610,1396590 853281,1387261 "/>
   <polygon class="fil0" points="2446719,1387261 2437272,1396590 "/>
   <polygon class="fil0" points="881386,1406037 871939,1396590 "/>
   <polygon class="fil0" points="2427943,1396590 2418496,1406037 "/>
   <polygon class="fil0" points="900161,1415365 890714,1406037 "/>
   <polygon class="fil0" points="2409168,1406037 2399839,1415365 "/>
   <polygon class="fil0" points="928265,1424694 909490,1415365 "/>
   <polygon class="fil0" points="2390392,1415365 2371617,1424694 "/>
   <polygon class="fil0" points="140875,506230 131547,515559 "/>
   <polygon class="fil0" points="1509361,2193545 1500032,2202755 "/>
   <polygon class="fil0" points="2793534,2202755 2784087,2193309 "/>
   <polygon class="fil0" points="1490585,2202755 1481257,2212084 "/>
   <polygon class="fil0" points="2812191,2221413 2802745,2202755 "/>
   <polygon class="fil0" points="1481257,2221413 1471928,2230860 "/>
   <polygon class="fil0" points="2821638,2230860 2812191,2221413 "/>
   <polygon class="fil0" points="1481257,2305843 1471810,2296515 "/>
   <polygon class="fil0" points="2812073,2305843 2821638,2287186 "/>
   <polygon class="fil0" points="1490585,2315172 1481257,2305843 "/>
   <polygon class="fil0" points="2812073,2305843 2802863,2315172 "/>
   <polygon class="fil0" points="1500032,2324383 1490585,2315172 "/>
   <polygon class="fil0" points="2802863,2315172 2793416,2324619 "/>
   <polygon class="fil0" points="1518690,2333948 1500032,2324383 "/>
   <polygon class="fil0" points="2784087,2324619 2765312,2333948 "/>
   <polygon class="fil0" points="1321842,9447 1303185,18775 "/>
   <polygon class="fil0" points="1996697,18775 1978040,9447 "/>
   <polygon class="fil0" points="1518690,2924490 1500032,2933819 "/>
   <polygon class="fil0" points="2793534,2933819 2774758,2924490 "/>
   <polygon class="fil0" points="1500032,2933819 1490585,2943147 "/>
   <polygon class="fil0" points="2802863,2943147 2793534,2933819 "/>
   <polygon class="fil0" points="1490585,2943147 1481257,2952594 "/>
   <polygon class="fil0" points="2812191,2952594 2802863,2943147 "/>
   <polygon class="fil0" points="1303185,18775 1284409,28104 "/>
   <polygon class="fil0" points="2015473,28104 1996697,18775 "/>
   <polygon class="fil0" points="1481257,2952594 1471810,2961923 "/>
   <polygon class="fil0" points="2821638,2961923 2812191,2952594 "/>
   <polygon class="fil0" points="1284409,28104 1265634,37551 "/>
   <polygon class="fil0" points="2034248,37551 2015473,28104 "/>
   <polygon class="fil0" points="1265634,37551 1256305,46880 "/>
   <polygon class="fil0" points="1481257,3036907 1471810,3027578 "/>
   <polygon class="fil0" points="2821638,3027578 2812191,3036907 "/>
   <polygon class="fil0" points="2812191,3036907 2802863,3046354 "/>
   <polygon class="fil0" points="2043577,46880 2034248,37551 "/>
   <polygon class="fil0" points="1500032,3055682 1481257,3046354 "/>
   <polygon class="fil0" points="1256305,46880 1246858,56208 "/>
   <polygon class="fil0" points="2802863,3046354 2793534,3055682 "/>
   <polygon class="fil0" points="1509361,3065011 1500032,3055682 "/>
   <polygon class="fil0" points="2793534,3055682 2784087,3065011 "/>
   <polygon class="fil0" points="2053024,56208 2043577,46880 "/>
   <polygon class="fil0" points="2071799,65655 2062352,56208 "/>
   <polygon class="fil0" points="1228201,74984 1218754,84431 "/>
   <polygon class="fil0" points="1218754,84431 1209425,93759 "/>
   <polygon class="fil0" points="2090457,93759 2081128,84431 "/>
   <polygon class="fil0" points="1209425,93759 1200097,103088 "/>
   <polygon class="fil0" points="2099903,103088 2090457,93759 "/>
   <polygon class="fil0" points="1190650,121864 1200097,103088 "/>
   <polygon class="fil0" points="1603120,112535 1593674,121864 "/>
   <polygon class="fil0" points="1706208,121864 1696880,112535 "/>
   <polygon class="fil0" points="2109232,121864 2099903,103088 "/>
   <polygon class="fil0" points="1584345,121864 1575016,131310 "/>
   <polygon class="fil0" points="1724984,131310 1715537,121864 "/>
   <polygon class="fil0" points="1181321,140639 1190650,121864 "/>
   <polygon class="fil0" points="1499914,3664882 1490703,3674329 "/>
   <polygon class="fil0" points="2802863,3674447 2784205,3664882 "/>
   <polygon class="fil0" points="1575016,131310 1565569,140639 "/>
   <polygon class="fil0" points="1490703,3674329 1481375,3683776 "/>
   <polygon class="fil0" points="2812191,3683658 2802863,3674447 "/>
   <polygon class="fil0" points="1471810,3702315 1481375,3683776 "/>
   <polygon class="fil0" points="2821638,3702433 2812191,3693105 "/>
   <polygon class="fil0" points="1734313,140639 1724984,131310 "/>
   <polygon class="fil0" points="2118561,140639 2109232,121864 "/>
   <polygon class="fil0" points="1565569,140639 1556241,149968 "/>
   <polygon class="fil0" points="2821638,3758642 2812191,3768088 "/>
   <polygon class="fil0" points="1743641,149968 1734313,140639 "/>
   <polygon class="fil0" points="1556241,159415 1546794,168743 "/>
   <polygon class="fil0" points="1490703,3786746 1481375,3777417 "/>
   <polygon class="fil0" points="2812191,3777417 2802863,3786628 "/>
   <polygon class="fil0" points="1499914,3796193 1490703,3786746 "/>
   <polygon class="fil0" points="2802863,3786628 2784205,3796193 "/>
   <polygon class="fil0" points="1753088,168743 1743641,159415 "/>
   <polygon class="fil0" points="1556241,271831 1546794,262503 "/>
   <polygon class="fil0" points="1753088,262503 1743641,271831 "/>
   <polygon class="fil0" points="1565569,290607 1556241,281278 "/>
   <polygon class="fil0" points="1743641,281278 1734313,290607 "/>
   <polygon class="fil0" points="1575016,299936 1565569,290607 "/>
   <polygon class="fil0" points="1734313,290607 1724984,299936 "/>
   <polygon class="fil0" points="1584345,309382 1575016,299936 "/>
   <polygon class="fil0" points="1724984,299936 1715537,309382 "/>
   <polygon class="fil0" points="1603120,318711 1593674,309382 "/>
   <polygon class="fil0" points="1706208,309382 1696880,318711 "/>
   <polygon class="fil0" points="412707,346815 393931,356144 "/>
   <polygon class="fil0" points="2905951,356144 2887175,346815 "/>
   <polygon class="fil0" points="375156,356144 356498,365591 "/>
   <polygon class="fil0" points="1481375,3777417 1471810,3758760 "/>
   <polygon class="fil0" points="2980935,4358513 2990263,4339855 "/>
   <polygon class="fil0" points="2943502,365591 2924726,356144 "/>
   <polygon class="fil0" points="328394,4377288 318947,4367960 "/>
   <polygon class="fil0" points="2980935,4367960 2971606,4377288 "/>
   <polygon class="fil0" points="337723,4396064 328394,4386617 "/>
   <polygon class="fil0" points="2971606,4386617 2962159,4396064 "/>
   <polygon class="fil0" points="347051,365591 328394,374919 "/>
   <polygon class="fil0" points="2971606,374919 2952830,365591 "/>
   <polygon class="fil0" points="2962159,4405393 2952830,4414839 "/>
   <polygon class="fil0" points="356498,4424168 347051,4414839 "/>
   <polygon class="fil0" points="2952830,4414839 2943502,4424168 "/>
   <polygon class="fil0" points="365827,4433497 356498,4424168 "/>
   <polygon class="fil0" points="2943502,4424168 2934055,4433497 "/>
   <polygon class="fil0" points="328394,374919 309619,384366 "/>
   <polygon class="fil0" points="375156,4442944 365827,4433497 "/>
   <polygon class="fil0" points="2934055,4433497 2924726,4442944 "/>
   <polygon class="fil0" points="2990263,384366 2971606,374919 "/>
   <polygon class="fil0" points="384602,4452272 375156,4442944 "/>
   <polygon class="fil0" points="2924726,4442944 2915279,4452272 "/>
   <polygon class="fil0" points="37787,4461719 28340,4442944 "/>
   <polygon class="fil0" points="403378,4461719 393931,4452272 "/>
   <polygon class="fil0" points="2905951,4452272 2896622,4461719 "/>
   <polygon class="fil0" points="3262095,4461719 3271542,4442944 "/>
   <polygon class="fil0" points="412707,4471048 403378,4461719 "/>
   <polygon class="fil0" points="2896622,4461719 2887175,4471048 "/>
   <polygon class="fil0" points="431482,4480376 422035,4471048 "/>
   <polygon class="fil0" points="2877847,4471048 2868400,4480376 "/>
   <polygon class="fil0" points="47116,4489705 37787,4471048 "/>
   <polygon class="fil0" points="459586,4489705 440811,4480376 "/>
   <polygon class="fil0" points="2859071,4480376 2840414,4489705 "/>
   <polygon class="fil0" points="3252766,4489705 3262095,4471048 "/>
   <polygon class="fil0" points="300172,384366 290843,393695 "/>
   <polygon class="fil0" points="3009039,393695 2999710,384366 "/>
   <polygon class="fil0" points="56563,4508481 47116,4489705 "/>
   <polygon class="fil0" points="3243319,4508481 3252766,4489705 "/>
   <polygon class="fil0" points="65891,4527256 56563,4508481 "/>
   <polygon class="fil0" points="3233991,4527256 3243319,4508481 "/>
   <polygon class="fil0" points="75220,4536585 65891,4527256 "/>
   <polygon class="fil0" points="3233991,4527256 3224662,4536585 "/>
   <polygon class="fil0" points="84667,4555360 75220,4546032 "/>
   <polygon class="fil0" points="3224662,4546032 3215333,4555360 "/>
   <polygon class="fil0" points="93996,4574136 84667,4564689 "/>
   <polygon class="fil0" points="3215333,4564689 3205886,4574136 "/>
   <polygon class="fil0" points="103324,4583465 93996,4574136 "/>
   <polygon class="fil0" points="3205886,4574136 3196558,4583465 "/>
   <polygon class="fil0" points="112771,4592911 103324,4583465 "/>
   <polygon class="fil0" points="3196558,4583465 3187111,4592911 "/>
   <polygon class="fil0" points="122100,4611569 112771,4602240 "/>
   <polygon class="fil0" points="3187111,4602240 3177782,4611569 "/>
   <polygon class="fil0" points="131547,4621016 122100,4611569 "/>
   <polygon class="fil0" points="3177782,4611569 3168453,4621016 "/>
   <polygon class="fil0" points="140875,4630344 131547,4621016 "/>
   <polygon class="fil0" points="3168453,4621016 3159007,4630344 "/>
   <polygon class="fil0" points="150204,4639791 140875,4630344 "/>
   <polygon class="fil0" points="3159007,4630344 3149678,4639791 "/>
   <polygon class="fil0" points="159651,4649120 150204,4639791 "/>
   <polygon class="fil0" points="3149678,4639791 3140231,4649120 "/>
   <polygon class="fil0" points="168979,4658448 159651,4649120 "/>
   <polygon class="fil0" points="3140231,4649120 3130902,4658448 "/>
   <polygon class="fil0" points="178308,4667895 168979,4658448 "/>
   <polygon class="fil0" points="3130902,4658448 3121574,4667895 "/>
   <polygon class="fil0" points="187755,4677224 178308,4667895 "/>
   <polygon class="fil0" points="3121574,4667895 3112127,4677224 "/>
   <polygon class="fil0" points="197084,4686553 187755,4677224 "/>
   <polygon class="fil0" points="3112127,4677224 3102798,4686553 "/>
   <polygon class="fil0" points="215859,4695999 206530,4686553 "/>
   <polygon class="fil0" points="3093470,4686553 3084023,4695999 "/>
   <polygon class="fil0" points="225188,4705328 215859,4695999 "/>
   <polygon class="fil0" points="3084023,4695999 3074694,4705328 "/>
   <polygon class="fil0" points="234635,4714775 225188,4705328 "/>
   <polygon class="fil0" points="3074694,4705328 3065247,4714775 "/>
   <polygon class="fil0" points="253410,4724104 243963,4714775 "/>
   <polygon class="fil0" points="3055919,4714775 3046590,4724104 "/>
   <polygon class="fil0" points="272068,4733432 262739,4724104 "/>
   <polygon class="fil0" points="3037143,4724104 3027814,4733432 "/>
   <polygon class="fil0" points="290843,4742879 272068,4733432 "/>
   <polygon class="fil0" points="3027814,4733432 3009039,4742879 "/>
   <polygon class="fil0" points="309619,4752208 290843,4742879 "/>
   <polygon class="fil0" points="3009039,4742879 2990263,4752208 "/>
   <polygon class="fil0" points="328394,4761537 309619,4752208 "/>
   <polygon class="fil0" points="2990263,4752208 2971606,4761537 "/>
   <polygon class="fil0" points="356498,4770983 337723,4761537 "/>
   <polygon class="fil0" points="2962159,4761537 2943502,4770983 "/>
   <polygon class="fil0" points="384602,4780312 365827,4770983 "/>
   <polygon class="fil0" points="2934055,4770983 2915279,4780312 "/>
   <polygon class="fil0" points="281514,393695 272068,403024 "/>
   <polygon class="fil0" points="3027814,403024 3018486,393695 "/>
   <polygon class="fil0" points="272068,403024 253410,412470 "/>
   <polygon class="fil0" points="3046590,412470 3027814,403024 "/>
   <polygon class="fil0" points="318947,4358513 309619,4339855 "/>
   <path class="fil0" d="M962274 2068729c106040,0 192124,85966 192124,192124 0,106158 -86084,192242 -192124,192242 -106159,0 -192243,-86084 -192243,-192242 0,-106158 86084,-192124 192243,-192124z"/>
   <path class="fil0" d="M962274 2797313c106040,0 192124,86084 192124,192124 0,106158 -86084,192242 -192124,192242 -106159,0 -192243,-86084 -192243,-192242 0,-106040 86084,-192124 192243,-192124z"/>
   <path class="fil0" d="M962274 3565927c106040,0 192124,86084 192124,192124 0,106159 -86084,192242 -192124,192242 -106159,0 -192243,-86083 -192243,-192242 0,-106040 86084,-192124 192243,-192124z"/>
  </g>
 </g>
</svg>
