<?xml version="1.0" encoding="UTF-8"?>
<!DOCTYPE svg PUBLIC "-//W3C//DTD SVG 1.1//EN" "http://www.w3.org/Graphics/SVG/1.1/DTD/svg11.dtd">
<!-- Creator: CorelDRAW Home & Student X7 -->
<svg xmlns="http://www.w3.org/2000/svg" xml:space="preserve" width="48px" height="40px" version="1.1" style="shape-rendering:geometricPrecision; text-rendering:geometricPrecision; image-rendering:optimizeQuality; fill-rule:evenodd; clip-rule:evenodd"
viewBox="0 0 4799882 3976930"
 xmlns:xlink="http://www.w3.org/1999/xlink">
 <defs>
  <style type="text/css">
   <![CDATA[
    .fil0 {fill:white}
    .fil1 {fill:white;fill-rule:nonzero}
   ]]>
  </style>
 </defs>
 <g id="Warstwa_x0020_1">
  <metadata id="CorelCorpID_0Corel-Layer"/>
  <path class="fil0" d="M3158703 1454692c171724,5787 504778,-39447 637882,16535 46179,42517 19015,418798 19015,459544l354 691856c-827,197234 25156,844565 -11102,988061 -397539,28818 -889090,4016 -1296786,4134 -1410049,354 -2324886,-24920 -2428227,17361 -23503,60116 -23858,183062 -2717,245185 39801,13818 3814655,53974 4011653,1417l1063 -2413227 648393 -2362c7677,-87634 -314394,-592176 -374036,-700478 -68619,-124600 -319237,-593711 -409114,-691029 -35077,25747 -781379,1301511 -796378,1383003z"/>
  <path class="fil1" d="M3253541 1402844c33069,-1063 68855,-2834 105703,-4606 168063,-7913 357857,-16771 461080,26574l10275 4370 7559 6968c59642,54918 46297,342975 40627,462733 -826,19015 -1417,32833 -1417,42163l-236 0 354 691856 0 236c-236,49604 1299,130033 3071,224044l0 236c5315,274948 12873,664574 -15944,778427l-10866 43344 -44525 3189c-274947,19959 -595601,14290 -902672,8976 -137592,-2362 -272703,-4724 -398603,-4724 -442773,118 -836769,-2362 -1171950,-4370 -657960,-4016 -1088096,-6732 -1206555,10865 -3897,20432 -6023,44998 -6259,70154l0 237c-236,23739 1181,47478 4134,67910 215186,8031 1532759,22085 2592864,22439 617096,119 1143487,-4606 1307180,-18306l945 -2359726 0 -61178 61532 -236 569027 -2126c-47832,-107357 -181762,-329866 -270459,-477260 -34959,-58108 -63304,-105231 -78303,-132395l0 -237 -32243 -58934c-77830,-143024 -230539,-423404 -321716,-558515 -74524,119757 -251917,421160 -415373,705201 -121057,210226 -232902,408523 -287230,512691zm111608 118459c-77476,3661 -150465,7086 -208336,5079l-71453 -2363 12873 -70154c7913,-43698 163457,-325259 336007,-625008 213888,-371320 459190,-778190 484465,-796614l44053 -32243 37321 40274c84444,91294 290182,468874 385847,644377l32124 58698 118 0c12756,23267 40983,70036 75823,127907 118813,197471 313213,520487 305655,607529l-4961 55982 -56572 236 -586861 2126 -944 2351932 0 47359 -45825 12165c-80193,21377 -674849,28463 -1384302,28227 -1158486,-354 -2635382,-21377 -2663137,-31061l-28581 -9803 -9684 -28463c-12874,-37675 -19133,-92358 -18661,-145150l0 -237c591,-52320 8031,-105585 22322,-142197l9448 -24330 24802 -10039c82319,-33660 539855,-30825 1279780,-26337 335180,2008 729176,4488 1171477,4370 127789,0 262901,2362 400611,4842 285104,4960 582254,10157 843738,-5787 16180,-139363 9920,-465095 5314,-703076 -1889,-94011 -3425,-174794 -3188,-226642l-355 -691856 -236 0c0,-4252 945,-22440 2008,-47478 4488,-96373 14881,-319118 2008,-360809 -83146,-26101 -246839,-18306 -392698,-11456z"/>
 </g>
</svg>
