<svg xmlns="http://www.w3.org/2000/svg" width="13.242" height="28.37" viewBox="0, 0, 13.242, 28.37"><path d="M4.364 1.462C5.47.408 7.044.053 8.528.008c1.57-.014 3.139-.005 4.709-.005.006 1.656.007 3.313 0 4.969-1.015-.002-2.03.003-3.045-.002-.643-.04-1.304.448-1.421 1.086-.015 1.108-.005 2.217-.005 3.325 1.488.006 2.976-.002 4.464.004-.108 1.603-.307 3.198-.541 4.788-1.314.012-2.629-.001-3.943.007-.012 4.728.006 9.456-.01 14.185-1.952.008-3.905-.004-5.858.005-.037-4.729.003-9.46-.02-14.189-.952-.01-1.905.006-2.858-.008.004-1.59.001-3.18.002-4.769.952-.011 1.904.003 2.856-.006.029-1.546-.029-3.093.03-4.637.096-1.223.562-2.455 1.476-3.299z" fill="#3B5898"/></svg>