<svg xmlns="http://www.w3.org/2000/svg" width="32" height="32" viewBox="0, 0, 32, 32"><g fill-opacity=".38"><path d="M15.999 30a.7.7 0 0 1-.551-.267c-.079-.103-1.985-2.54-3.915-6.139-1.137-2.119-2.044-4.199-2.695-6.183C8.016 14.909 7.6 12.55 7.6 10.4 7.6 5.769 11.369 2 16 2s8.4 3.769 8.4 8.4c0 2.15-.417 4.508-1.238 7.011-.651 1.984-1.558 4.064-2.695 6.183-1.932 3.599-3.836 6.036-3.915 6.139a.7.7 0 0 1-.551.267zm0-26.6c-3.86 0-7 3.14-7 7 0 4.556 2.048 9.33 3.767 12.531a48.093 48.093 0 0 0 3.233 5.194 48.198 48.198 0 0 0 3.245-5.216c1.712-3.196 3.755-7.962 3.755-12.509 0-3.86-3.141-7-7-7z"/><path d="M16 16.047a4.205 4.205 0 0 1-4.2-4.2c0-2.316 1.884-4.2 4.2-4.2 2.316 0 4.2 1.884 4.2 4.2 0 2.315-1.884 4.2-4.2 4.2zm0-7a2.803 2.803 0 0 0-2.8 2.8c0 1.544 1.256 2.8 2.8 2.8 1.544 0 2.8-1.256 2.8-2.8 0-1.544-1.256-2.8-2.8-2.8z"/></g></svg>