<?xml version="1.0" encoding="UTF-8"?>
<!DOCTYPE svg PUBLIC "-//W3C//DTD SVG 1.1//EN" "http://www.w3.org/Graphics/SVG/1.1/DTD/svg11.dtd">
<!-- Creator: CorelDRAW Home & Student X7 -->
<svg xmlns="http://www.w3.org/2000/svg" xml:space="preserve" width="48px" height="28px" version="1.1" style="shape-rendering:geometricPrecision; text-rendering:geometricPrecision; image-rendering:optimizeQuality; fill-rule:evenodd; clip-rule:evenodd"
viewBox="0 0 4800000 2798622"
 xmlns:xlink="http://www.w3.org/1999/xlink">
 <defs>
  <style type="text/css">
   <![CDATA[
    .fil0 {fill:white}
   ]]>
  </style>
 </defs>
 <g id="Warstwa_x0020_1">
  <metadata id="CorelCorpID_0Corel-Layer"/>
  <path class="fil0" d="M1856220 1061220c-101338,0 -131220,1300 -131220,-112559 0,-172559 135591,-340039 248031,-445630 116575,-109370 305552,-191811 520749,-191811 172204,0 535511,179528 752716,259725 119882,44409 147638,19724 204331,133110 81023,161811 217795,534095 282756,729803 24803,74764 58228,195827 91417,264803 -54567,14646 -73110,44174 -131339,75000 -77834,-147165 -267165,-314055 -389055,-435944l-663543 -573898c-144094,-108071 -114685,-74764 -280276,-23032 -197480,61654 -136417,-31771 -266220,146339 -53504,73346 -120591,174094 -238347,174094zm1781221 -468779c183307,-87874 401811,-93780 675000,-93780 36732,157678 99094,258544 164055,585945 34134,171496 98504,509292 98504,670394 -618543,0 -484843,73583 -597638,-264921l-339921 -897638zm-2118661 318779c0,155079 -12284,198426 97204,296457 309095,276732 681614,-225945 684213,-227480 31063,-19961 162520,-50197 212244,-50197 59055,0 540000,460394 600000,506220 73583,56103 487559,471969 487559,618780 0,289961 -299646,-50197 -425787,-155551l-309922 -290079c-161220,-165590 -220630,-11339 -220630,33071 0,83150 92481,130984 144567,174331l437244 406417c48071,35551 57284,30000 74528,94252 -139606,208465 -338504,-73701 -487559,-187441 -134646,-102874 -249567,-281339 -375000,-281339 -77953,0 -75000,69567 -75000,112559 0,64725 295630,315237 389291,398268 59174,52441 113386,61654 135709,145512 -178937,100512 -349370,-115157 -445276,-210945 -114212,-114331 -185078,-239055 -304724,-239055 -62717,0 -104291,76654 -82677,136772 25275,69803 280984,264212 364016,388228 -252520,0 -359292,-160039 -573189,-326929l-677245 -560197c-56456,-47480 -118346,-106417 -174566,-144213 66732,-286417 274251,-852283 281220,-1162441 131102,30591 326811,18780 487441,18780 -55276,82559 -72165,68386 -152953,221929 -36142,68740 -90708,189685 -90708,284291zm-825000 900000l-487560 0c0,-314291 108780,-1066771 153071,-1403267 5315,-40276 9685,-171733 53150,-171733 91890,0 598583,103583 656339,131221 -9686,116339 -48544,269882 -75000,375000l-300000 1068779zm-693780 37441l18780 131339c157086,75354 411023,40039 524409,36850 295630,-8149 315591,14292 375591,-243189 100984,27048 1030866,905315 1276653,992008 270118,95315 353976,-46653 427087,-48189 70511,-1535 153543,82323 343582,-21378 52914,-28819 81851,-78779 132520,-92480 67087,-18071 214134,18189 337323,-112677 72047,-76654 6614,-75473 114803,-110197 142323,-45827 247087,-123425 263858,-297520 11811,-122362 -67795,-5669 47835,-178228 107953,8976 273071,117283 772795,60236 156024,-17716 63662,7323 164764,-60236 0,-245551 -86811,-747520 -139134,-985984 -35197,-160276 -77716,-287953 -133701,-428740 -64370,-161811 -111732,-216496 -345945,-216496 -261377,0 -446929,66377 -658700,130511 -180473,54685 -704410,-299291 -972520,-299291 -170669,0 -215079,-10157 -382559,48661 -284882,100040 -47717,46063 -480591,45709l-547677 -33543 -716220 -146811c-98032,-17362 -153662,-41339 -201496,25275 -42520,59055 -115276,638032 -128740,734646 -45827,325748 -92717,703819 -92717,1069724z"/>
 </g>
</svg>
