<?xml version="1.0" encoding="UTF-8"?>
<!DOCTYPE svg PUBLIC "-//W3C//DTD SVG 1.1//EN" "http://www.w3.org/Graphics/SVG/1.1/DTD/svg11.dtd">
<!-- Creator: CorelDRAW Home & Student X7 -->
<svg xmlns="http://www.w3.org/2000/svg" xml:space="preserve" width="48px" height="43px" version="1.1" style="shape-rendering:geometricPrecision; text-rendering:geometricPrecision; image-rendering:optimizeQuality; fill-rule:evenodd; clip-rule:evenodd"
viewBox="0 0 4800000 4304882"
 xmlns:xlink="http://www.w3.org/1999/xlink">
 <defs>
  <style type="text/css">
   <![CDATA[
    .fil0 {fill:white}
   ]]>
  </style>
 </defs>
 <g id="Warstwa_x0020_1">
  <metadata id="CorelCorpID_0Corel-Layer"/>
  <g id="_627968400">
   <path class="fil0" d="M917835 1632756c25984,-310984 409960,-769134 674409,-958110 278858,-199252 768543,-397559 1294843,-318544 438661,65788 788740,249331 1079882,552638 979133,1019764 386929,2770276 -953032,3017953 -1324961,244842 -1840984,-770551 -1949646,-858543 -123307,-100040 -177283,-13465 -270118,48661 0,206575 37677,214843 130394,339567 1281024,1723583 4221732,651260 3841772,-1689803 -111496,-687047 -641457,-1345276 -1289882,-1604055 -263977,-105355 -467008,-162874 -827126,-162402 -809528,1181 -1496693,421654 -1854331,1039843 -91299,157677 -254646,498070 -272835,716456 -229842,-153897 -117637,-247323 -445275,-247323 -67559,100867 -123307,167126 -19370,291142 60236,71811 152716,151418 223464,222047 369567,369567 323622,491930 965788,-209173 74055,-80905 104882,-235866 -23032,-289842 -173149,-73111 -221102,52795 -305905,109488z"/>
   <path class="fil0" d="M2476181 964961c0,191929 -42283,1202598 36614,1299094 87992,107835 549922,61299 804331,61299 237638,0 237638,-346299 0,-346299l-494646 0 0 -915236c0,-378189 -346299,-242008 -346299,-98858z"/>
  </g>
 </g>
</svg>
