<svg xmlns="http://www.w3.org/2000/svg" width="35.99" height="33.839" viewBox="0, 0, 35.99, 33.839"><path d="M18.216 33.418c-.099 0-.194-.003-.267-.007a2.022 2.022 0 0 1-.176.007c-2.092 0-3.492-.989-4.726-1.863-.885-.625-1.72-1.215-2.698-1.378a8.778 8.778 0 0 0-1.419-.12c-.832 0-1.489.129-1.969.223-.295.058-.55.107-.747.107-.206 0-.456-.045-.561-.402a11.2 11.2 0 0 1-.199-.816c-.143-.655-.247-1.055-.493-1.093-2.624-.405-4.175-1.002-4.484-1.724a.661.661 0 0 1-.054-.228.42.42 0 0 1 .352-.439c2.084-.344 3.938-1.445 5.509-3.276 1.217-1.417 1.814-2.771 1.879-2.921.002-.007.006-.013.009-.02.303-.614.363-1.145.18-1.578-.339-.797-1.459-1.153-2.2-1.388a7.902 7.902 0 0 1-.497-.168c-.657-.26-1.737-.808-1.593-1.565.104-.552.834-.936 1.424-.936.164 0 .309.029.431.086.667.312 1.266.471 1.782.471.641 0 .951-.244 1.026-.314-.02-.35-.041-.7-.064-1.05-.15-2.395-.338-5.375.425-7.084C11.367.826 16.206.428 17.634.428l.707-.006c1.432 0 6.28.398 8.563 5.517.763 1.71.575 4.693.424 7.09l-.007.115c-.021.325-.04.633-.056.932.07.065.354.289.93.311.492-.019 1.057-.176 1.679-.467.192-.091.405-.109.55-.109.218 0 .441.042.626.119l.01.004c.528.188.874.562.881.955.007.367-.266.915-1.606 1.445-.138.054-.313.11-.498.168-.742.236-1.861.591-2.199 1.388-.184.432-.123.963.18 1.577l.009.021c.094.219 2.351 5.366 7.388 6.196a.422.422 0 0 1 .352.44.68.68 0 0 1-.055.23c-.307.718-1.858 1.314-4.483 1.719-.247.038-.35.437-.492 1.089-.059.269-.119.533-.201.81-.076.261-.246.389-.519.389h-.041c-.178 0-.429-.033-.747-.095a9.831 9.831 0 0 0-1.969-.208c-.461 0-.939.04-1.42.12-.976.162-1.811.752-2.694 1.376-1.238.875-2.637 1.864-4.73 1.864" fill="#FFFC00"/><path d="M18.341.843c1.348 0 5.991.363 8.179 5.268.72 1.615.535 4.541.387 6.891-.023.373-.046.734-.065 1.08l-.007.148.099.111c.04.044.414.435 1.247.467l.013.001h.014c.551-.021 1.171-.192 1.845-.508a.907.907 0 0 1 .371-.069c.159 0 .328.03.468.089l.021.008c.353.124.603.357.607.569.002.119-.088.549-1.34 1.044a7.893 7.893 0 0 1-.47.158c-.815.259-2.045.649-2.46 1.626-.233.55-.169 1.199.19 1.928.148.345 2.473 5.584 7.707 6.446a.223.223 0 0 1-.022.084c-.088.209-.652.931-4.16 1.472-.549.085-.684.7-.84 1.415-.056.256-.113.515-.192.782-.024.081-.029.085-.115.085h-.041c-.156 0-.392-.032-.666-.086a10.295 10.295 0 0 0-2.05-.216c-.486 0-.987.042-1.489.126-1.073.179-1.947.796-2.871 1.45-1.242.877-2.525 1.785-4.484 1.785-.085 0-.169-.002-.252-.007l-.022-.001-.023.002a1.74 1.74 0 0 1-.145.006c-1.958 0-3.242-.907-4.484-1.785-.924-.654-1.798-1.271-2.871-1.45a9.163 9.163 0 0 0-1.489-.126c-.87 0-1.552.133-2.05.231-.274.053-.511.099-.666.099-.127 0-.129-.007-.156-.099-.079-.267-.136-.532-.192-.788-.157-.716-.291-1.335-.84-1.419-3.508-.542-4.072-1.265-4.161-1.473a.253.253 0 0 1-.021-.086c5.233-.861 7.558-6.1 7.706-6.447.36-.729.424-1.378.19-1.928-.414-.976-1.645-1.367-2.459-1.625a7.633 7.633 0 0 1-.471-.159c-1.058-.418-1.383-.839-1.334-1.094.056-.294.565-.593 1.01-.593.1 0 .188.016.253.046.722.339 1.382.511 1.96.511.91 0 1.315-.423 1.358-.472l.099-.11-.008-.148c-.019-.345-.041-.706-.065-1.078-.148-2.351-.332-5.275.388-6.89C11.651 1.227 16.271.85 17.635.85l.627-.006.079-.001m0-.843h-.002l-.088.001-.618.006c-.799 0-2.398.113-4.115.871a9.143 9.143 0 0 0-2.624 1.74c-.906.86-1.644 1.921-2.193 3.152-.805 1.804-.614 4.842-.46 7.283v.004l.05.8c-.118.054-.31.111-.592.111-.453 0-.993-.145-1.603-.43a1.425 1.425 0 0 0-.61-.126c-.363 0-.746.107-1.078.302-.417.245-.687.592-.761.976-.048.254-.046.757.513 1.267.307.28.758.539 1.34.769.153.06.334.118.526.179.666.211 1.675.531 1.938 1.15.133.314.076.727-.17 1.226a.75.75 0 0 0-.019.041c-.061.144-.635 1.443-1.811 2.813a10.147 10.147 0 0 1-2.187 1.935 8.04 8.04 0 0 1-3.07 1.199.842.842 0 0 0-.705.879c.007.124.036.248.086.368l.002.002c.171.402.57.743 1.218 1.045.792.367 1.976.677 3.519.919.078.148.159.521.215.776.059.271.12.55.207.846.094.321.338.705.965.705.238 0 .511-.054.828-.115.463-.091 1.097-.215 1.888-.215.439 0 .893.039 1.351.115.881.146 1.642.683 2.521 1.305 1.288.911 2.745 1.941 4.972 1.941.06 0 .121-.002.181-.006.074.003.165.006.261.006 2.228 0 3.685-1.031 4.971-1.94l.002-.002c.88-.621 1.639-1.158 2.521-1.304a8.26 8.26 0 0 1 1.35-.115c.756 0 1.354.096 1.888.201.349.068.62.101.828.101l.02.001h.021c.459 0 .796-.252.924-.693.086-.29.147-.562.207-.838.052-.239.136-.622.214-.772 1.544-.243 2.728-.551 3.52-.919.646-.3 1.044-.641 1.217-1.042.052-.12.083-.244.089-.371a.842.842 0 0 0-.705-.879c-4.811-.793-6.979-5.736-7.068-5.946l-.019-.041c-.246-.5-.303-.912-.17-1.227.263-.618 1.271-.938 1.938-1.15.193-.061.375-.118.526-.178.657-.26 1.126-.541 1.436-.86.369-.381.441-.746.437-.985-.011-.578-.453-1.091-1.156-1.342a2.064 2.064 0 0 0-.783-.15c-.187 0-.465.026-.728.148-.563.264-1.067.408-1.5.428a1.334 1.334 0 0 1-.496-.109l.042-.698.007-.104c.154-2.442.345-5.482-.459-7.287-.552-1.236-1.292-2.299-2.202-3.161A9.189 9.189 0 0 0 22.454.865 10.486 10.486 0 0 0 18.341 0" fill="#020202"/></svg>