<?xml version="1.0" encoding="UTF-8"?>
<!DOCTYPE svg PUBLIC "-//W3C//DTD SVG 1.1//EN" "http://www.w3.org/Graphics/SVG/1.1/DTD/svg11.dtd">
<!-- Creator: CorelDRAW Home & Student X7 -->
<svg xmlns="http://www.w3.org/2000/svg" xml:space="preserve" width="48px" height="31px" version="1.1" style="shape-rendering:geometricPrecision; text-rendering:geometricPrecision; image-rendering:optimizeQuality; fill-rule:evenodd; clip-rule:evenodd"
viewBox="0 0 4800000 3103110"
 xmlns:xlink="http://www.w3.org/1999/xlink">
 <defs>
  <style type="text/css">
   <![CDATA[
    .fil0 {fill:white}
   ]]>
  </style>
 </defs>
 <g id="Warstwa_x0020_1">
  <metadata id="CorelCorpID_0Corel-Layer"/>
  <g id="_753729096">
   <path class="fil0" d="M1591063 530906c-41457,238582 -107480,350787 -14882,615590 34370,98504 66260,156024 122953,235984 55748,78780 117874,125315 168071,187796 156260,93425 279567,170905 532559,170905 252638,0 376771,-78543 533031,-170905 49016,-61890 112441,-109725 167599,-187914 56693,-80197 88228,-136771 122834,-235984 92835,-266811 25985,-376890 -14882,-615472 -95669,-133819 -83622,-210709 -292440,-364843 -424489,-313346 -1043150,-158032 -1266024,257598 -24921,46536 -31536,69449 -58819,107245zm685394 -286418c-320197,62244 -587008,366614 -504213,764410 168189,807047 1431496,574252 1254921,-275552 -64370,-309921 -372874,-562440 -750708,-488858z"/>
   <path class="fil0" d="M1524331 2288386c-37677,41102 -52677,42992 -94370,69331 -193347,122244 -336496,284763 -469252,475748 -179882,258425 42756,352441 156614,175157 45945,-71575 72874,-107244 117756,-165118 573189,-739724 1764212,-753189 2355827,30118 61771,81850 186614,352323 301771,164055 93071,-152362 -346417,-565866 -511417,-672638 -44410,-28700 -64843,-31653 -106181,-76653 -313229,-139252 -467244,-235394 -875315,-235394 -157914,0 -328937,25630 -470315,67323 -169370,49842 -257835,102874 -405118,168071z"/>
   <path class="fil0" d="M1776260 1647992c-166417,-98031 -278150,109843 -580276,30118 -185787,-49134 -317834,-183071 -376181,-361181 -74882,-228779 12638,-426614 134882,-549331 258543,-259488 408780,-61417 454606,-274488 -2362,-73228 -13110,-60000 -48779,-113386 -602835,0 -917599,555237 -758622,1023189 145039,427323 677834,720237 1193267,375237 0,-78307 8859,-76063 -18897,-130158z"/>
   <path class="fil0" d="M3382441 500551c50433,68740 -1535,64488 84567,96614 40748,15237 103583,16890 156142,32244 503858,147048 527952,907796 -18426,1049764 -348425,90591 -390708,-143386 -581338,-26929 -40158,144331 25512,186614 205157,242008 146575,45118 280630,53858 444449,4370 258189,-77835 440669,-249094 524764,-495709 142559,-418464 -97795,-854882 -462874,-978779 -141260,-47835 -315827,-109961 -352441,76417z"/>
   <path class="fil0" d="M132165 3097441c140197,-43937 88583,-176339 424961,-441260 362362,-285354 510591,-133110 518504,-367795l-58347 -72874c-360472,-9803 -1017283,502677 -1017283,828661 75354,65433 42638,52559 132165,53268z"/>
   <path class="fil0" d="M3724016 2288386c5433,174331 94015,139960 233031,199724 551575,237047 551575,557362 710315,608859l75591 4724c77598,-117402 91063,-131811 -56339,-322323 -197244,-255000 -400157,-406890 -698976,-529370 -84331,-34488 -88465,-37205 -208347,-37205l-55275 75591z"/>
  </g>
 </g>
</svg>
