<svg xmlns="http://www.w3.org/2000/svg" width="29.531" height="24" viewBox="0, 0, 29.531, 24"><path d="M9.287 24c11.144 0 17.238-9.232 17.238-17.239 0-.262-.005-.523-.017-.783a12.314 12.314 0 0 0 3.022-3.137 12.104 12.104 0 0 1-3.479.954A6.08 6.08 0 0 0 28.715.444a12.137 12.137 0 0 1-3.847 1.47 6.06 6.06 0 0 0-10.324 5.525 17.2 17.2 0 0 1-12.489-6.33 6.04 6.04 0 0 0-.821 3.045 6.056 6.056 0 0 0 2.697 5.044 6.02 6.02 0 0 1-2.744-.758l-.001.077a6.06 6.06 0 0 0 4.86 5.94 6.018 6.018 0 0 1-2.736.103 6.065 6.065 0 0 0 5.66 4.209 12.157 12.157 0 0 1-7.525 2.593c-.488 0-.971-.028-1.445-.084A17.146 17.146 0 0 0 9.287 24" fill="#1DA1F2"/></svg>