<svg xmlns="http://www.w3.org/2000/svg" width="86.718" height="75" viewBox="0, 0, 86.718, 75"><path d="M86.676 17.35c-.386 8.441-6.281 19.997-17.685 34.668C57.2 67.337 47.224 75 39.067 75c-5.057 0-9.334-4.664-12.829-13.996-2.333-8.555-4.664-17.109-6.998-25.664-2.596-9.328-5.378-13.998-8.356-13.998-.649 0-2.919 1.366-6.806 4.084L0 20.172c4.28-3.759 8.501-7.519 12.654-11.284 5.708-4.93 9.996-7.525 12.852-7.787 6.746-.648 10.901 3.964 12.459 13.837 1.685 10.654 2.853 17.279 3.506 19.872 1.948 8.839 4.089 13.254 6.426 13.254 1.813 0 4.541-2.866 8.177-8.602 3.629-5.732 5.575-10.094 5.837-13.092.519-4.948-1.427-7.427-5.837-7.427-2.076 0-4.217.478-6.419 1.422C53.918 6.408 62.06-.371 74.078.016c8.911.261 13.113 6.039 12.598 17.334" fill="#31AFD8"/></svg>