<?xml version="1.0" encoding="UTF-8"?>
<!DOCTYPE svg PUBLIC "-//W3C//DTD SVG 1.1//EN" "http://www.w3.org/Graphics/SVG/1.1/DTD/svg11.dtd">
<svg version="1.1" xmlns="http://www.w3.org/2000/svg" xmlns:xlink="http://www.w3.org/1999/xlink" x="0" y="0" width="13.242" height="28.37" viewBox="0, 0, 13.242, 28.37">
  <g id="Layer_1" transform="translate(-631.381, -585.815)">
    <path d="M635.745,587.277 C636.851,586.223 638.425,585.868 639.909,585.823 C641.479,585.809 643.048,585.818 644.618,585.818 C644.624,587.474 644.625,589.131 644.618,590.787 C643.603,590.785 642.588,590.79 641.573,590.785 C640.93,590.745 640.269,591.233 640.152,591.871 C640.137,592.979 640.147,594.088 640.147,595.196 C641.635,595.202 643.123,595.194 644.611,595.2 C644.503,596.803 644.304,598.398 644.07,599.988 C642.756,600 641.441,599.987 640.127,599.995 C640.115,604.723 640.133,609.451 640.117,614.18 C638.165,614.188 636.212,614.176 634.259,614.185 C634.222,609.456 634.262,604.725 634.239,599.996 C633.287,599.986 632.334,600.002 631.381,599.988 C631.385,598.398 631.382,596.808 631.383,595.219 C632.335,595.208 633.287,595.222 634.239,595.213 C634.268,593.667 634.21,592.12 634.269,590.576 C634.365,589.353 634.831,588.121 635.745,587.277 z" fill="#3B5898" id="_x23_020201ff"/>
  </g>
</svg>
