<?xml version="1.0" encoding="UTF-8"?>
<!DOCTYPE svg PUBLIC "-//W3C//DTD SVG 1.1//EN" "http://www.w3.org/Graphics/SVG/1.1/DTD/svg11.dtd">
<svg version="1.1" xmlns="http://www.w3.org/2000/svg" xmlns:xlink="http://www.w3.org/1999/xlink" x="0" y="0" width="32.06" height="32" viewBox="0, 0, 32.06, 32">
  <g id="Layer_1" transform="translate(-537.971, -584)">
    <g>
      <path d="M541.828,584 C543.951,584 545.678,585.727 545.678,587.852 C545.678,589.98 543.951,591.706 541.828,591.706 C539.693,591.706 537.971,589.98 537.971,587.852 C537.971,585.727 539.693,584 541.828,584 M538.499,594.625 L545.15,594.625 L545.15,616 L538.499,616 z" fill="#006087"/>
      <path d="M549.318,594.625 L555.683,594.625 L555.683,597.547 L555.775,597.547 C556.664,595.867 558.828,594.095 562.061,594.095 C568.789,594.095 570.031,598.52 570.031,604.278 L570.031,616 L563.39,616 L563.39,605.604 C563.39,603.125 563.345,599.938 559.936,599.938 C556.482,599.938 555.954,602.64 555.954,605.427 L555.954,616 L549.318,616 L549.318,594.625" fill="#006087"/>
    </g>
  </g>
</svg>
