<?xml version="1.0" encoding="UTF-8"?>
<!DOCTYPE svg PUBLIC "-//W3C//DTD SVG 1.1//EN" "http://www.w3.org/Graphics/SVG/1.1/DTD/svg11.dtd">
<svg version="1.1" xmlns="http://www.w3.org/2000/svg" xmlns:xlink="http://www.w3.org/1999/xlink" x="0" y="0" width="35.99" height="33.839" viewBox="0, 0, 35.99, 33.839">
  <g id="Layer_1" transform="translate(-788.003, -583.08)">
    <path d="M806.219,616.498 C806.12,616.498 806.025,616.495 805.952,616.491 C805.895,616.496 805.836,616.498 805.776,616.498 C803.684,616.498 802.284,615.509 801.05,614.635 C800.165,614.01 799.33,613.42 798.352,613.257 C797.872,613.178 797.394,613.137 796.933,613.137 C796.101,613.137 795.444,613.266 794.964,613.36 C794.669,613.418 794.414,613.467 794.217,613.467 C794.011,613.467 793.761,613.422 793.656,613.065 C793.573,612.784 793.514,612.512 793.457,612.249 C793.314,611.594 793.21,611.194 792.964,611.156 C790.34,610.751 788.789,610.154 788.48,609.432 C788.449,609.36 788.43,609.283 788.426,609.204 C788.413,608.989 788.565,608.8 788.778,608.765 C790.862,608.421 792.716,607.32 794.287,605.489 C795.504,604.072 796.101,602.718 796.166,602.568 C796.168,602.561 796.172,602.555 796.175,602.548 C796.478,601.934 796.538,601.403 796.355,600.97 C796.016,600.173 794.896,599.817 794.155,599.582 C793.971,599.524 793.797,599.469 793.658,599.414 C793.001,599.154 791.921,598.606 792.065,597.849 C792.169,597.297 792.899,596.913 793.489,596.913 C793.653,596.913 793.798,596.942 793.92,596.999 C794.587,597.311 795.186,597.47 795.702,597.47 C796.343,597.47 796.653,597.226 796.728,597.156 C796.708,596.806 796.687,596.456 796.664,596.106 C796.514,593.711 796.326,590.731 797.089,589.022 C799.37,583.906 804.209,583.508 805.637,583.508 C805.872,583.506 806.108,583.504 806.344,583.502 C807.776,583.502 812.624,583.9 814.907,589.019 C815.67,590.729 815.482,593.712 815.331,596.109 L815.324,596.224 C815.303,596.549 815.284,596.857 815.268,597.156 C815.338,597.221 815.622,597.445 816.198,597.467 C816.69,597.448 817.255,597.291 817.877,597 C818.069,596.909 818.282,596.891 818.427,596.891 C818.645,596.891 818.868,596.933 819.053,597.01 L819.063,597.014 C819.591,597.202 819.937,597.576 819.944,597.969 C819.951,598.336 819.678,598.884 818.338,599.414 C818.2,599.468 818.025,599.524 817.84,599.582 C817.098,599.818 815.979,600.173 815.641,600.97 C815.457,601.402 815.518,601.933 815.821,602.547 C815.824,602.554 815.827,602.561 815.83,602.568 C815.924,602.787 818.181,607.934 823.218,608.764 C823.43,608.799 823.582,608.989 823.57,609.204 C823.565,609.283 823.547,609.361 823.515,609.434 C823.208,610.152 821.657,610.748 819.032,611.153 C818.785,611.191 818.682,611.59 818.54,612.242 C818.481,612.511 818.421,612.775 818.339,613.052 C818.263,613.313 818.093,613.441 817.82,613.441 L817.779,613.441 C817.601,613.441 817.35,613.408 817.032,613.346 C816.477,613.238 815.855,613.138 815.063,613.138 C814.602,613.138 814.124,613.178 813.643,613.258 C812.667,613.42 811.832,614.01 810.949,614.634 C809.711,615.509 808.312,616.498 806.219,616.498" fill="#FFFC00"/>
    <path d="M806.344,583.923 C807.692,583.923 812.335,584.286 814.523,589.191 C815.243,590.806 815.058,593.732 814.91,596.082 C814.887,596.455 814.864,596.816 814.845,597.162 L814.838,597.31 L814.937,597.421 C814.977,597.465 815.351,597.856 816.184,597.888 L816.197,597.889 L816.211,597.889 C816.762,597.868 817.382,597.697 818.056,597.381 C818.155,597.335 818.287,597.312 818.427,597.312 C818.586,597.312 818.755,597.342 818.895,597.401 L818.916,597.409 C819.269,597.533 819.519,597.766 819.523,597.978 C819.525,598.097 819.435,598.527 818.183,599.022 C818.061,599.07 817.9,599.121 817.713,599.18 C816.898,599.439 815.668,599.829 815.253,600.806 C815.02,601.356 815.084,602.005 815.443,602.734 C815.591,603.079 817.916,608.318 823.15,609.18 C823.148,609.209 823.141,609.238 823.128,609.264 C823.04,609.473 822.476,610.195 818.968,610.736 C818.419,610.821 818.284,611.436 818.128,612.151 C818.072,612.407 818.015,612.666 817.936,612.933 C817.912,613.014 817.907,613.018 817.821,613.018 L817.78,613.018 C817.624,613.018 817.388,612.986 817.114,612.932 C816.616,612.835 815.935,612.716 815.064,612.716 C814.578,612.716 814.077,612.758 813.575,612.842 C812.502,613.021 811.628,613.638 810.704,614.292 C809.462,615.169 808.179,616.077 806.22,616.077 C806.135,616.077 806.051,616.075 805.968,616.07 L805.946,616.069 L805.923,616.071 C805.875,616.075 805.827,616.077 805.778,616.077 C803.82,616.077 802.536,615.17 801.294,614.292 C800.37,613.638 799.496,613.021 798.423,612.842 C797.921,612.759 797.42,612.716 796.934,612.716 C796.064,612.716 795.382,612.849 794.884,612.947 C794.61,613 794.373,613.046 794.218,613.046 C794.091,613.046 794.089,613.039 794.062,612.947 C793.983,612.68 793.926,612.415 793.87,612.159 C793.713,611.443 793.579,610.824 793.03,610.74 C789.522,610.198 788.958,609.475 788.869,609.267 C788.857,609.24 788.85,609.211 788.848,609.181 C794.081,608.32 796.406,603.081 796.554,602.734 C796.914,602.005 796.978,601.356 796.744,600.806 C796.33,599.83 795.099,599.439 794.285,599.181 C794.097,599.122 793.936,599.07 793.814,599.022 C792.756,598.604 792.431,598.183 792.48,597.928 C792.536,597.634 793.045,597.335 793.49,597.335 C793.59,597.335 793.678,597.351 793.743,597.381 C794.465,597.72 795.125,597.892 795.703,597.892 C796.613,597.892 797.018,597.469 797.061,597.42 L797.16,597.31 L797.152,597.162 C797.133,596.817 797.111,596.456 797.087,596.084 C796.939,593.733 796.755,590.809 797.475,589.194 C799.654,584.307 804.274,583.93 805.638,583.93 C805.672,583.93 806.265,583.924 806.265,583.924 C806.289,583.924 806.316,583.923 806.344,583.923 M806.344,583.08 L806.342,583.08 C806.311,583.08 806.282,583.08 806.254,583.081 L805.636,583.087 C804.837,583.087 803.238,583.2 801.521,583.958 C800.539,584.391 799.656,584.976 798.897,585.698 C797.991,586.558 797.253,587.619 796.704,588.85 C795.899,590.654 796.09,593.692 796.244,596.133 L796.244,596.137 C796.261,596.398 796.278,596.671 796.294,596.937 C796.176,596.991 795.984,597.048 795.702,597.048 C795.249,597.048 794.709,596.903 794.099,596.618 C793.92,596.534 793.715,596.492 793.489,596.492 C793.126,596.492 792.743,596.599 792.411,596.794 C791.994,597.039 791.724,597.386 791.65,597.77 C791.602,598.024 791.604,598.527 792.163,599.037 C792.47,599.317 792.921,599.576 793.503,599.806 C793.656,599.866 793.837,599.924 794.029,599.985 C794.695,600.196 795.704,600.516 795.967,601.135 C796.1,601.449 796.043,601.862 795.797,602.361 C795.79,602.375 795.784,602.388 795.778,602.402 C795.717,602.546 795.143,603.845 793.967,605.215 C793.299,605.994 792.563,606.645 791.78,607.15 C790.825,607.767 789.792,608.171 788.71,608.349 C788.284,608.419 787.98,608.798 788.005,609.228 C788.012,609.352 788.041,609.476 788.091,609.596 L788.093,609.598 C788.264,610 788.663,610.341 789.311,610.643 C790.103,611.01 791.287,611.32 792.83,611.562 C792.908,611.71 792.989,612.083 793.045,612.338 C793.104,612.609 793.165,612.888 793.252,613.184 C793.346,613.505 793.59,613.889 794.217,613.889 C794.455,613.889 794.728,613.835 795.045,613.774 C795.508,613.683 796.142,613.559 796.933,613.559 C797.372,613.559 797.826,613.598 798.284,613.674 C799.165,613.82 799.926,614.357 800.805,614.979 C802.093,615.89 803.55,616.92 805.777,616.92 C805.837,616.92 805.898,616.918 805.958,616.914 C806.032,616.917 806.123,616.92 806.219,616.92 C808.447,616.92 809.904,615.889 811.19,614.98 L811.192,614.978 C812.072,614.357 812.831,613.82 813.713,613.674 C814.17,613.598 814.624,613.559 815.063,613.559 C815.819,613.559 816.417,613.655 816.951,613.76 C817.3,613.828 817.571,613.861 817.779,613.861 L817.799,613.862 L817.82,613.862 C818.279,613.862 818.616,613.61 818.744,613.169 C818.83,612.879 818.891,612.607 818.951,612.331 C819.003,612.092 819.087,611.709 819.165,611.559 C820.709,611.316 821.893,611.008 822.685,610.64 C823.331,610.34 823.729,609.999 823.902,609.598 C823.954,609.478 823.985,609.354 823.991,609.227 C824.016,608.797 823.711,608.418 823.286,608.348 C818.475,607.555 816.307,602.612 816.218,602.402 C816.212,602.388 816.206,602.374 816.199,602.361 C815.953,601.861 815.896,601.449 816.029,601.134 C816.292,600.516 817.3,600.196 817.967,599.984 C818.16,599.923 818.342,599.866 818.493,599.806 C819.15,599.546 819.619,599.265 819.929,598.946 C820.298,598.565 820.37,598.2 820.366,597.961 C820.355,597.383 819.913,596.87 819.21,596.619 C818.973,596.521 818.703,596.469 818.427,596.469 C818.24,596.469 817.962,596.495 817.699,596.617 C817.136,596.881 816.632,597.025 816.199,597.045 C815.969,597.034 815.807,596.984 815.703,596.936 C815.716,596.711 815.73,596.479 815.745,596.238 L815.752,596.134 C815.906,593.692 816.097,590.652 815.293,588.847 C814.741,587.611 814.001,586.548 813.091,585.686 C812.328,584.963 811.442,584.378 810.457,583.945 C808.742,583.193 807.144,583.08 806.344,583.08" fill="#020202"/>
  </g>
</svg>
