<?xml version="1.0" encoding="UTF-8"?>
<!DOCTYPE svg PUBLIC "-//W3C//DTD SVG 1.1//EN" "http://www.w3.org/Graphics/SVG/1.1/DTD/svg11.dtd">
<svg version="1.1" xmlns="http://www.w3.org/2000/svg" xmlns:xlink="http://www.w3.org/1999/xlink" x="0" y="0" width="29.531" height="24" viewBox="0, 0, 29.531, 24">
  <g id="Layer_1" transform="translate(-707.237, -588)">
    <path d="M716.524,612 C727.668,612 733.762,602.768 733.762,594.761 C733.762,594.499 733.757,594.238 733.745,593.978 C734.928,593.123 735.956,592.056 736.767,590.841 C735.682,591.323 734.514,591.648 733.288,591.795 C734.539,591.045 735.499,589.858 735.952,588.444 C734.782,589.138 733.485,589.642 732.105,589.914 C730.999,588.737 729.425,588 727.683,588 C724.337,588 721.624,590.713 721.624,594.058 C721.624,594.533 721.677,594.996 721.781,595.439 C716.745,595.186 712.28,592.775 709.292,589.109 C708.771,590.005 708.471,591.045 708.471,592.154 C708.471,594.256 709.541,596.112 711.168,597.198 C710.174,597.167 709.24,596.894 708.424,596.44 C708.423,596.465 708.423,596.49 708.423,596.517 C708.423,599.452 710.511,601.901 713.283,602.457 C712.774,602.595 712.239,602.67 711.686,602.67 C711.296,602.67 710.916,602.631 710.547,602.56 C711.318,604.968 713.555,606.72 716.207,606.769 C714.133,608.394 711.521,609.362 708.682,609.362 C708.194,609.362 707.711,609.334 707.237,609.278 C709.918,610.997 713.102,612 716.524,612" fill="#1DA1F2" id="Twitter_bird_logo_2012"/>
  </g>
</svg>
